<svg xmlns="http://www.w3.org/2000/svg" version="1.1" width="100px" height="100px" style="shape-rendering:geometricPrecision; text-rendering:geometricPrecision; image-rendering:optimizeQuality; fill-rule:evenodd; clip-rule:evenodd" xmlns:xlink="http://www.w3.org/1999/xlink">
    <g><path style="opacity:0.783" fill="#f3f3f3" d="M 53.5,1.5 C 54.8734,1.34332 56.2068,1.50999 57.5,2C 60.9331,8.43353 66.2665,12.1002 73.5,13C 78.8229,13.4994 84.1563,13.666 89.5,13.5C 89.423,17.7939 88.7564,21.9605 87.5,26C 88.2638,28.0693 88.7638,30.236 89,32.5C 91.32,36.3132 93.4866,40.1465 95.5,44C 91.977,51.6512 91.6437,59.4845 94.5,67.5C 93.2041,71.0392 91.3707,71.3725 89,68.5C 86.5837,60.0824 87.0837,51.9158 90.5,44C 83.7217,36.8601 81.7217,28.5267 84.5,19C 78.0509,18.7219 71.7175,17.7219 65.5,16C 60.9489,13.9909 57.1156,11.1576 54,7.5C 46.6352,9.32688 39.1352,9.99354 31.5,9.5C 31.5,8.16667 31.5,6.83333 31.5,5.5C 37.2102,5.52901 42.8769,5.02901 48.5,4C 50.4913,3.62638 52.158,2.79305 53.5,1.5 Z"/></g>
    <g><path style="opacity:0.815" fill="#f3f3f3" d="M 45.5,14.5 C 53.9871,14.8195 57.4871,19.1528 56,27.5C 55.3848,29.1161 54.3848,30.4495 53,31.5C 48.0146,27.1794 42.5146,23.6794 36.5,21C 39.2485,18.3105 42.2485,16.1438 45.5,14.5 Z"/></g>
    <g><path style="opacity:0.824" fill="#f3f3f3" d="M 59.5,22.5 C 68.533,24.9104 70.6997,30.2438 66,38.5C 64.4878,39.2567 63.1545,40.2567 62,41.5C 60.75,38.0838 58.5833,35.4172 55.5,33.5C 58.0202,30.2733 59.3536,26.6066 59.5,22.5 Z"/></g>
    <g><path style="opacity:0.921" fill="#f3f3f3" d="M 26.5,23.5 C 32.0409,23.8183 37.3742,24.985 42.5,27C 46.2171,30.3847 50.2171,33.3847 54.5,36C 60.448,41.691 59.2813,45.5243 51,47.5C 46.6791,46.9298 43.5124,44.7632 41.5,41C 38.204,40.5426 35.0373,39.7093 32,38.5C 30.1667,41.5 28.3333,44.5 26.5,47.5C 27.5,48.8333 28.5,48.8333 29.5,47.5C 32.058,41.0995 34.2246,41.0995 36,47.5C 37.7657,55.4508 36.2657,62.6175 31.5,69C 32,69.5 32.5,70 33,70.5C 35.7441,68.0163 37.7441,65.0163 39,61.5C 39.2932,55.4061 39.4598,49.4061 39.5,43.5C 42.5206,46.0992 43.1872,49.2658 41.5,53C 42.1765,56.855 44.0098,60.0217 47,62.5C 47.4195,73.2553 52.9195,77.7553 63.5,76C 67.2784,73.888 70.7784,71.388 74,68.5C 72.4904,73.0522 69.6571,76.8855 65.5,80C 62.1667,82.3333 58.8333,84.6667 55.5,87C 46.8215,90.5013 38.1549,94.0013 29.5,97.5C 28.062,97.2811 26.7287,96.7811 25.5,96C 19.1271,89.9583 12.4604,84.2916 5.5,79C 3.55197,77.561 2.21864,75.7277 1.5,73.5C 5.24123,63.4988 7.74123,53.1655 9,42.5C 11.1419,36.2206 14.3086,30.5539 18.5,25.5C 21.3106,24.9204 23.9773,24.2537 26.5,23.5 Z"/></g>
    <g><path style="opacity:0.848" fill="#f3f3f3" d="M 70.5,35.5 C 75.9894,39.1229 76.8227,43.7896 73,49.5C 67.8333,53.3333 62.6667,57.1667 57.5,61C 49,62.4927 44.8333,58.9927 45,50.5C 56.2623,50.4427 64.7623,45.4427 70.5,35.5 Z"/></g>
    <g><path style="opacity:0.849" fill="#f3f3f3" d="M 76.5,48.5 C 78.4109,48.5743 79.5776,49.5743 80,51.5C 80.6667,54.1667 80.6667,56.8333 80,59.5C 75.6734,64.2478 70.84,68.4145 65.5,72C 60.6369,74.3291 56.1369,73.8291 52,70.5C 50.872,68.6547 50.372,66.6547 50.5,64.5C 54.4629,64.9111 58.1295,64.0778 61.5,62C 66.9504,57.9512 71.9504,53.4512 76.5,48.5 Z"/></g>
</svg>
