<svg xmlns="http://www.w3.org/2000/svg" viewBox="0 0 200 200"><path fill="#f3f3f3" d="M100 200C44.859 200 0 155.141 0 100S44.859 0 100 0c14.51 0 28.484 3.034 41.539 9.021l-3.334 7.271C126.205 10.791 113.35 8 100 8 49.271 8 8 49.272 8 100c0 50.729 41.271 92 92 92s92-41.271 92-92c0-13.38-2.811-26.275-8.354-38.328l7.269-3.344C196.942 71.438 200 85.458 200 100c0 55.141-44.859 100-100 100z"/><path fill="#f3f3f3" d="M172 100c0 39.761-32.239 72-72 72s-72-32.239-72-72 32.239-72 72-72 72 32.239 72 72z"/><path fill="#00337C" d="M118.289 104a17.609 17.609 0 0 1-12.531-5.188 17.62 17.62 0 0 1-5.188-12.528c0-4.725 1.841-9.172 5.183-12.521a17.614 17.614 0 0 1 12.536-5.192 17.6 17.6 0 0 1 12.525 5.189A17.582 17.582 0 0 1 136 86.284c0 4.736-1.842 9.185-5.186 12.528A17.603 17.603 0 0 1 118.289 104zm0-27.43a9.661 9.661 0 0 0-6.877 2.849 9.66 9.66 0 0 0-2.842 6.865 9.67 9.67 0 0 0 2.846 6.874A9.66 9.66 0 0 0 118.289 96a9.658 9.658 0 0 0 6.87-2.847A9.652 9.652 0 0 0 128 86.284a9.643 9.643 0 0 0-2.841-6.865 9.655 9.655 0 0 0-6.87-2.849z"/><path fill="#00337C" d="M118.289 131.43a17.635 17.635 0 0 1-12.529-5.183c-3.349-3.359-5.189-7.807-5.189-12.531 0-4.729 1.841-9.175 5.183-12.522a17.615 17.615 0 0 1 12.536-5.193c4.729 0 9.177 1.844 12.525 5.19a17.58 17.58 0 0 1 5.186 12.525c0 4.734-1.842 9.183-5.186 12.526-3.357 3.347-7.804 5.188-12.526 5.188zm0-27.43a9.667 9.667 0 0 0-6.877 2.847 9.667 9.667 0 0 0-2.842 6.869 9.68 9.68 0 0 0 2.847 6.875 9.675 9.675 0 0 0 6.872 2.839 9.668 9.668 0 0 0 6.872-2.849 9.646 9.646 0 0 0 2.839-6.865 9.64 9.64 0 0 0-2.841-6.867 9.655 9.655 0 0 0-6.87-2.849z"/><g fill="#00337C"><path d="M81.144 131.43h-8V76.57H64v-8h17.144z"/><path d="M64 123.43h26.284v8H64z"/></g><g fill="#f3f3f3"><path d="M163.869 16.131h8v32h-8z"/><path d="M151.869 28.131h32v8h-32z"/></g></svg>