<svg xmlns="http://www.w3.org/2000/svg" data-name="Layer 3" viewBox="0 0 24 24">
    <path fill="#f3f3f3" d="M18.5,4h-1A1.5,1.5,0,0,0,16,5.5V6H5.5A1.5,1.5,0,0,0,4,7.5v12A1.5,1.5,0,0,0,5.5,21h13A2.5,2.5,0,0,0,21,18.528C21,.051,21,9.09,21,6.5A2.5,2.5,0,0,0,18.5,4ZM16,14.926a2.48,2.48,0,0,1-1.8-1.453A3.172,3.172,0,0,0,12.52,11.73,4.05,4.05,0,0,1,10,7.969V7h6ZM5,19.5V12.04a3.48,3.48,0,0,1,2.835,2.4,2.514,2.514,0,0,0,1.772,1.7A4.483,4.483,0,0,1,12.958,20H5.5A.5.5,0,0,1,5,19.5Zm13.5.5H13.958a5.48,5.48,0,0,0-4.106-4.833,1.515,1.515,0,0,1-1.063-1.034A4.475,4.475,0,0,0,5,11.04V7.5A.5.5,0,0,1,5.5,7H9v.969a5.047,5.047,0,0,0,3.14,4.686,2.178,2.178,0,0,1,1.135,1.208,3.491,3.491,0,0,0,2.808,2.106A1.5,1.5,0,0,0,17.5,17h.893A1.548,1.548,0,0,1,20,18.48,1.5,1.5,0,0,1,18.5,20ZM20,16.531A2.694,2.694,0,0,0,18.393,16H17.5a.5.5,0,0,1-.5-.5V5.5a.5.5,0,0,1,.5-.5h1A1.5,1.5,0,0,1,20,6.5Z"/>
    <path fill="#f3f3f3" d="M7.5 16A1.5 1.5 0 1 0 9 17.5 1.5 1.5 0 0 0 7.5 16zm0 2a.5.5 0 1 1 .5-.5A.5.5 0 0 1 7.5 18zM12.4 10.6a.5.5 0 0 0 .708 0l.4-.4.4.4A.5.5 0 0 0 14.6 9.9l-.4-.4.4-.4A.5.5 0 0 0 13.9 8.4l-.4.4-.4-.4A.5.5 0 0 0 12.4 9.1l.4.4-.4.4A.5.5 0 0 0 12.4 10.6z"/>
</svg>