<svg xmlns="http://www.w3.org/2000/svg"  viewBox="0 0 48 48" width="48px" height="48px"><path fill="#f3f3f3" d="M 38.123047 1.4726562 C 37.822047 1.4387813 37.510375 1.4963906 37.234375 1.6503906 C 36.236375 2.1983906 34.716094 2.6422188 33.246094 3.0742188 C 31.522094 3.5792187 29.757281 4.0968125 28.363281 4.8828125 C 27.366281 3.8838125 25.851141 3.2798594 24.119141 3.2558594 C 22.349141 3.2128594 20.84525 3.7662188 19.78125 4.6992188 C 18.46225 3.7232188 16.758375 3.2403281 14.984375 2.7363281 C 13.860375 2.4183281 12.697031 2.0871875 11.582031 1.6171875 C 11.117031 1.4231875 10.589922 1.473 10.169922 1.75 C 9.7519219 2.028 9.5 2.497 9.5 3 C 9.5 3.106 9.5157969 5.0236719 10.466797 7.3886719 C 9.0277969 7.2206719 7.3978281 6.7974687 5.7988281 5.7304688 C 5.3378281 5.4244687 4.7448125 5.39525 4.2578125 5.65625 C 3.7708125 5.91725 3.4667969 6.4265156 3.4667969 6.9785156 C 3.4667969 9.7715156 4.9867031 11.921219 6.5957031 14.199219 C 6.6367031 14.258219 6.6797031 14.317953 6.7207031 14.376953 C 6.0317031 14.764953 5.4781875 15.175156 4.9921875 15.535156 C 4.1181875 16.187156 3.668 16.5 3 16.5 C 2.486 16.5 2.0074219 16.763266 1.7324219 17.197266 C 1.4574219 17.631266 1.4225781 18.175672 1.6425781 18.638672 C 3.1175781 21.767672 5.301 23.829313 8 24.695312 L 8 26.363281 L 8 27 L 6.9882812 27 C 5.8902812 27 5 27.778281 5 28.738281 C 5 30.050281 5.9189375 33.024797 6.2109375 33.841797 C 6.6249375 35.000797 7.0590625 35.696156 7.6640625 36.160156 C 7.9990625 36.417156 8.6738437 36.645828 9.2148438 36.798828 C 9.7338438 38.221828 10.393828 39.567938 11.173828 40.710938 C 11.872828 41.733938 18.091 47 23 47 C 28.359 47 34.213172 41.606938 34.826172 40.710938 C 35.606172 39.567937 36.266156 38.221828 36.785156 36.798828 C 37.325156 36.644828 38.000938 36.417156 38.335938 36.160156 C 38.940937 35.696156 39.375062 34.999797 39.789062 33.841797 C 40.081063 33.024797 41 30.130281 41 28.738281 C 41 27.778281 40.109719 27 39.011719 27 L 38 27 L 38 26.363281 L 38 25.373047 C 40.646 25.059047 44.799641 23.380375 46.431641 18.484375 C 46.583641 18.026375 46.508562 17.524766 46.226562 17.134766 C 45.944563 16.742766 45.492766 16.511719 45.009766 16.511719 C 44.655766 16.511719 44.143562 16.038109 43.601562 15.537109 C 43.199562 15.166109 42.732734 14.735188 42.177734 14.367188 C 43.648734 12.422187 44.414062 9.9246719 44.414062 7.0136719 C 44.414062 6.4606719 44.108094 5.9514063 43.621094 5.6914062 C 43.134094 5.4314063 42.543031 5.459625 42.082031 5.765625 C 40.599031 6.754625 39.486125 6.8401719 38.078125 6.9511719 C 37.992125 6.9581719 37.906359 6.9656562 37.818359 6.9726562 C 38.649359 5.2546563 39.304656 3.6313906 39.347656 3.5253906 C 39.583656 2.9373906 39.425172 2.2627969 38.951172 1.8417969 C 38.714172 1.6312969 38.424047 1.5065312 38.123047 1.4726562 z M 22.994141 17.748047 C 24.592141 17.748047 27.498281 17.856797 29.988281 18.091797 C 30.566281 18.146797 31 18.592234 31 19.115234 L 31 26.328125 C 31 26.711125 30.681062 27.023437 30.289062 27.023438 L 15.787109 27.023438 C 15.346109 27.023438 14.990234 26.673187 14.990234 26.242188 L 14.990234 19.115234 C 14.990234 18.592234 15.423953 18.145797 16.001953 18.091797 C 18.492953 17.856797 21.396141 17.748047 22.994141 17.748047 z M 27.152344 19.982422 C 27.015094 19.982422 26.877938 20.030453 26.773438 20.126953 L 25.908203 20.923828 C 25.403203 20.587828 24.471578 20.105469 23.267578 20.105469 C 21.365578 20.105469 19.877781 21.3955 19.800781 23.0625 L 18.755859 25.349609 C 18.685859 25.501609 18.704734 25.677453 18.802734 25.814453 C 18.902734 25.953453 19.071 26.035156 19.25 26.035156 L 22.865234 26.035156 C 23.746234 26.035156 25.142578 25.465547 25.142578 23.935547 C 25.142578 22.862547 24.466156 22.082031 23.535156 22.082031 C 22.426156 22.082031 22.002594 22.925094 21.933594 23.371094 C 21.891594 23.641094 22.096672 23.893641 22.388672 23.931641 C 22.687672 23.972641 22.953141 23.781719 22.994141 23.511719 C 23.000141 23.466719 23.075156 23.070312 23.535156 23.070312 C 23.886156 23.070312 24.070312 23.505547 24.070312 23.935547 C 24.070312 25.016547 22.876234 25.048828 22.865234 25.048828 C 21.625234 25.048828 20.857422 24.339312 20.857422 23.195312 C 20.857422 22.163312 21.758578 21.095703 23.267578 21.095703 C 24.620578 21.095703 25.559406 21.932453 25.566406 21.939453 C 25.775406 22.132453 26.115219 22.132453 26.324219 21.939453 L 27.529297 20.826172 C 27.739297 20.632172 27.74025 20.320953 27.53125 20.126953 C 27.42675 20.030453 27.289594 19.982422 27.152344 19.982422 z M 36 28.345703 L 36 30.390625 C 36 32.519625 35.458547 34.899 34.560547 37 L 30.119141 37 C 30.038141 37 29.970984 37.058672 29.958984 37.138672 C 29.946984 37.218672 29.996219 37.295359 30.074219 37.318359 L 33.867188 38.441406 C 33.649187 38.838406 33.421734 39.223078 33.177734 39.580078 C 33.140734 39.631078 33.076094 39.706969 32.996094 39.792969 L 30.003906 39.142578 C 29.895906 39.119578 29.783703 39.162906 29.720703 39.253906 C 29.658703 39.344906 29.65775 39.466594 29.71875 39.558594 L 31.019531 41.519531 C 28.971531 43.093531 25.823 45 23 45 C 20.528 45 17.388188 43.188766 15.242188 41.634766 L 16.464844 39.800781 C 16.537844 39.691781 16.530266 39.547312 16.447266 39.445312 C 16.364266 39.343313 16.225516 39.308422 16.103516 39.357422 L 13.613281 40.353516 C 13.216281 40.008516 12.937219 39.732078 12.824219 39.580078 C 12.581219 39.225078 12.355672 38.844219 12.138672 38.449219 L 15.615234 37.417969 C 15.717234 37.387969 15.782578 37.286641 15.767578 37.181641 C 15.753578 37.077641 15.662641 37 15.556641 37 L 11.441406 37 C 10.542406 34.899 10 32.519625 10 30.390625 L 10 28.347656 C 10.643 28.451656 11.289453 28.560062 11.939453 28.664062 L 15.054688 30.039062 C 13.969687 30.218063 13 31.027 13 32 C 13.773 32 14.4465 32.039656 15.0625 32.097656 C 15.0265 32.226656 15 32.359 15 32.5 C 15 33.328 15.672 34 16.5 34 C 17.267 34 17.892422 33.422687 17.982422 32.679688 C 18.594422 32.895688 19.034844 33.133656 19.339844 33.347656 C 19.452844 33.426656 19.602844 33.425703 19.714844 33.345703 C 19.827844 33.266703 19.877797 33.124187 19.841797 32.992188 C 19.754797 32.676187 19.615203 32.316984 19.408203 31.958984 L 19.5 32 L 20.068359 32 C 20.207359 32 20.330953 31.91225 20.376953 31.78125 C 20.422953 31.65025 20.381438 31.503969 20.273438 31.417969 L 17.25 29 L 23 29 L 28.75 29 L 25.726562 31.417969 C 25.618562 31.504969 25.577047 31.65025 25.623047 31.78125 C 25.669047 31.91225 25.792641 32 25.931641 32 L 26.5 32 L 26.591797 31.960938 C 26.384797 32.318937 26.244203 32.678141 26.158203 32.994141 C 26.122203 33.127141 26.172156 33.268656 26.285156 33.347656 C 26.397156 33.426656 26.548156 33.426656 26.660156 33.347656 C 26.966156 33.133656 27.405578 32.895688 28.017578 32.679688 C 28.107578 33.421687 28.733 34 29.5 34 C 30.328 34 31 33.328 31 32.5 C 31 32.359 30.9735 32.226656 30.9375 32.097656 C 31.5535 32.039656 32.227 32 33 32 C 33 31.027 32.031312 30.218062 30.945312 30.039062 L 34.199219 28.603516 C 34.850219 28.517516 35.461 28.429703 36 28.345703 z M 21.542969 37 C 21.428969 37 21.321625 37.062109 21.265625 37.162109 C 21.209625 37.262109 21.213437 37.384422 21.273438 37.482422 C 21.638438 38.073422 22.319 39 23 39 C 23.653 39 24.305688 38.148641 24.679688 37.556641 C 24.750688 37.444641 24.755406 37.3025 24.691406 37.1875 C 24.627406 37.0715 24.505047 37 24.373047 37 L 21.542969 37 z M 19.894531 41 C 19.400531 41 19 41.400531 19 41.894531 L 19 42.058594 C 19 42.578594 19.421406 43 19.941406 43 L 26.054688 43 C 26.576687 43 27 42.576687 27 42.054688 L 27 41.869141 C 27 41.389141 26.610859 41 26.130859 41 L 19.894531 41 z"/></svg>