<svg xmlns="http://www.w3.org/2000/svg" data-name="Layer 3" viewBox="0 0 24 24">
    <path fill="#f3f3f3" d="M15,6.5a2.5,2.5,0,1,0-3,2.449V15.5a.5.5,0,0,0,1,0V8.949A2.5,2.5,0,0,0,15,6.5Zm-4,0A1.5,1.5,0,1,1,12.5,8,1.5,1.5,0,0,1,11,6.5Z"/>
    <path fill="#f3f3f3" d="M7,13.5v5A2.5,2.5,0,0,0,9.5,21h6A2.5,2.5,0,0,0,18,18.5v-5A2.5,2.5,0,0,0,15.5,11h-1a.5.5,0,0,0,0,1h1A1.5,1.5,0,0,1,17,13.5v5A1.5,1.5,0,0,1,15.5,20h-6A1.5,1.5,0,0,1,8,18.5v-5A1.5,1.5,0,0,1,9.5,12h1a.5.5,0,0,0,0-1h-1A2.5,2.5,0,0,0,7,13.5Z"/>
    <path fill="#f3f3f3" d="M10,15.5a2.484,2.484,0,0,1,.732-1.768.5.5,0,0,0-.707-.707,3.5,3.5,0,1,0,4.95,0,.5.5,0,0,0-.707.707A2.493,2.493,0,1,1,10,15.5Z"/>
</svg>