<svg xmlns="http://www.w3.org/2000/svg" enable-background="new 0 0 48 48" viewBox="0 0 48 48"><path fill="#f3f3f3" d="M47.707,32.292L43,27.585v-6.791c-0.001-0.661-0.129-1.304-0.38-1.912l-2.363-5.704c-0.583-1.411-1.762-2.466-3.232-2.891
	L34.45,9.544c-0.144-0.457-0.382-0.89-0.744-1.252c-0.581-0.581-1.336-0.876-2.099-0.902c-0.027-0.762-0.321-1.517-0.902-2.098
	c-1.217-1.217-3.197-1.217-4.415,0.001l-2.292,2.292l-2.292-2.292c-1.217-1.217-3.197-1.217-4.415,0.001
	c-0.579,0.579-0.874,1.331-0.902,2.092c-0.763,0.026-1.517,0.327-2.098,0.908c-0.349,0.349-0.597,0.782-0.747,1.252l-2.57,0.743
	c-1.47,0.423-2.648,1.477-3.233,2.889l-2.362,5.704c-0.253,0.61-0.38,1.253-0.38,1.914v6.789l-4.707,4.707
	c-0.391,0.391-0.391,1.023,0,1.414l10,10c0.391,0.391,1.023,0.391,1.414,0l4.718-4.718c1.99-0.099,3.848-0.898,5.282-2.282
	L24,34.414l2.305,2.305c1.422,1.373,3.279,2.17,5.269,2.27l4.718,4.718c0.391,0.391,1.023,0.391,1.414,0l10-10
	C48.098,33.316,48.098,32.683,47.707,32.292z M38.138,13.455c-0.175-0.036-0.353-0.06-0.531-0.066
	c-0.007-0.208-0.039-0.414-0.086-0.617C37.761,12.966,37.968,13.194,38.138,13.455z M38.291,15.705c0.437,0.439,0.437,1.15,0,1.587
	l-4,4c-0.438,0.438-1.149,0.438-1.586,0.001c-0.438-0.438-0.438-1.149,0-1.587l4-4C37.143,15.268,37.854,15.268,38.291,15.705z
	 M35.291,12.705c0.437,0.439,0.437,1.15,0,1.587l-4,4c-0.438,0.438-1.149,0.438-1.586,0.001c-0.437-0.437-0.437-1.148,0.001-1.586
	l4-4C34.143,12.269,34.855,12.269,35.291,12.705z M32.291,9.705c0.437,0.438,0.437,1.15,0,1.587l-4,4
	c-0.438,0.438-1.149,0.438-1.586,0.001c-0.437-0.437-0.437-1.148,0.001-1.586l4-4C31.144,9.269,31.855,9.269,32.291,9.705z
	 M23.706,10.706l4-4c0.438-0.438,1.149-0.438,1.585-0.001c0.437,0.438,0.438,1.15,0.001,1.588l-4,4
	c-0.438,0.438-1.149,0.438-1.587,0C23.268,11.855,23.268,11.144,23.706,10.706z M20.306,35.28C19.175,36.373,17.606,37,16.001,37
	c-0.265,0-0.519,0.105-0.707,0.293l-4.293,4.293l-8.586-8.586l4.293-4.293C6.895,28.519,7,28.264,7,27.999v-7.204
	c0.001-0.396,0.077-0.782,0.229-1.148l2.362-5.704c0.352-0.849,1.059-1.48,1.94-1.733l3.75-1.085
	c1.096-0.316,2.265,0.229,2.607,1.216c0.182,0.526,0.142,1.087-0.112,1.579c-0.255,0.493-0.688,0.847-1.225,1.003L12.72,16.04
	c-0.315,0.091-0.565,0.333-0.668,0.644l-1,3c-0.151,0.452,0.039,0.947,0.452,1.184c1.517,0.869,2.498,2.884,2.498,5.133
	c0,2.248-0.976,4.259-2.498,5.133c-0.476,0.267-0.644,0.885-0.37,1.365c0.274,0.479,0.885,0.645,1.365,0.37
	c2.027-1.161,3.363-3.677,3.48-6.475L22.586,33L20.306,35.28z M37,41.586l-4.293-4.293C32.519,37.105,32.265,37,31.999,37
	c-1.605,0-3.174-0.627-4.292-1.707L15.549,23.135c-0.472-1.447-1.291-2.693-2.361-3.536l0.595-1.786l3.325-0.97
	c1.051-0.302,1.94-1.033,2.443-2.003c0.464-0.897,0.554-1.905,0.294-2.87c0.305,0.048,0.626-0.028,0.861-0.263
	c0.391-0.391,0.391-1.023,0-1.414l-2-2c-0.437-0.437-0.437-1.148,0-1.586c0.438-0.438,1.149-0.438,1.586-0.001l2.292,2.292
	l-0.293,0.293c-1.217,1.217-1.217,3.198-0.001,4.415c0.581,0.581,1.336,0.876,2.098,0.903c0.027,0.762,0.322,1.517,0.902,2.098
	c0.581,0.581,1.335,0.876,2.098,0.902c0.026,0.762,0.321,1.517,0.902,2.098s1.335,0.875,2.098,0.902
	c0.027,0.762,0.322,1.518,0.903,2.098c1.217,1.217,3.197,1.217,4.415-0.001l0.293-0.293l0.293,0.293
	c0.391,0.391,1.023,0.391,1.414,0c0.391-0.391,0.391-1.023,0-1.414l-0.293-0.293l2.292-2.292c0.174-0.174,0.316-0.367,0.441-0.568
	l0.625,1.509c0.151,0.365,0.228,0.751,0.229,1.148v7.204c0,0.265,0.105,0.519,0.293,0.707l4.293,4.293L37,41.586z"/></svg>