<svg xmlns="http://www.w3.org/2000/svg" data-name="Layer 1" viewBox="0 0 64 64"><path fill="#f3f3f3" d="M28.34,34.23c-1.66,1.65-1.66,5.58,0,7.23a3.55,3.55,0,0,0,1,.71l-1,7.08a1,1,0,0,0,1,1.11h5.38a1,1,0,0,0,1-1.11l-1-7.08a3.47,3.47,0,0,0,1-.7c1.66-1.66,1.66-5.59,0-7.24S30,32.58,28.34,34.23Zm5.95,5.87a2.15,2.15,0,0,1-1,.49,1,1,0,0,0-.72,1.08l1,6.75H30.43l1-6.75a1,1,0,0,0-.7-1.07,2.35,2.35,0,0,1-1-.5,4.09,4.09,0,0,1,0-4.5c.88-.88,3.7-.88,4.58,0A4.09,4.09,0,0,1,34.29,40.1Z"/><path fill="#f3f3f3" d="M49.24,18.84V17.23a17.24,17.24,0,0,0-34.47,0v1.61C9.88,21.05,6.69,25.59,6,31.39,4.6,43.1,14.81,52.89,19.27,56.56l.33.26a47.65,47.65,0,0,0,5.34,3.78l.44.28,1.18.68c.64.36,1.3.7,2,1,1,.49,2,.94,3.15,1.37A1,1,0,0,0,32,64a1,1,0,0,0,.34-.06c1.17-.45,2.2-.9,3.14-1.36.66-.32,1.32-.66,2-1,.45-.26.92-.53,1.36-.8l.44-.27a48.58,48.58,0,0,0,5.11-3.65c.13-.09.24-.19.36-.28h0C49.19,52.89,59.39,43.1,58,31.39,57.31,25.59,54.13,21.05,49.24,18.84ZM16.7,17.23A15.3,15.3,0,0,1,42.82,6.42,15.16,15.16,0,0,1,47.3,17.23v.88l-.11,0L47,18c-.41-.11-.83-.2-1.25-.28l-.24,0a12.85,12.85,0,0,0-1.39-.16l-.31,0-.43,0v-.26a11.36,11.36,0,0,0-22.71,0v.26l-.44,0h-.3c-.47,0-.93.09-1.39.16l-.24,0c-.41.07-.83.17-1.24.28l-.22.06-.12,0Zm24.72,0v.35A16.47,16.47,0,0,0,32,21.85a16.52,16.52,0,0,0-9.42-4.27v-.35a9.42,9.42,0,0,1,18.83,0ZM43.5,55.06l-.33.26a46.54,46.54,0,0,1-5,3.53,4.44,4.44,0,0,1-.39.24c-.45.28-.89.53-1.32.78-.61.34-1.23.66-1.87,1-.8.4-1.67.78-2.64,1.16-.93-.37-1.8-.75-2.64-1.16-.63-.3-1.25-.62-1.85-1l-1.15-.67A2.94,2.94,0,0,1,26,59a45.45,45.45,0,0,1-5.19-3.68l-.3-.23C11.73,47.84,7,39.08,7.92,31.62c.64-5.32,3.62-9.42,8.18-11.25a11.54,11.54,0,0,1,1.25-.43l.43-.1.86-.2.51-.07c.27,0,.54-.07.82-.09l.54,0c.35,0,.71,0,1.07,0h0a14.54,14.54,0,0,1,9.74,4.44,1,1,0,0,0,1.37,0,14.61,14.61,0,0,1,9.74-4.44,13.15,13.15,0,0,1,4.51.6c.32.1.63.2.94.32l0,0c4.55,1.83,7.52,5.93,8.16,11.24C57.35,42.37,47.71,51.59,43.5,55.06Z"/></svg>