<svg xmlns="http://www.w3.org/2000/svg" enable-background="new 0 0 492 492" viewBox="0 0 492 492"><path fill="#f3f3f3"  fill-rule="evenodd" d="M263.377 174.321c-1.474 0-2.948-.562-4.073-1.687-2.249-2.25-2.249-5.897 0-8.146l21.922-21.922c.042-.042.085-.084.129-.125 9.951-9.35 20.922-12.15 32.537-15.114l.855-.218c9.874-2.522 18.897-8.41 32.554-17.323l1.605-1.047c2.282-1.488 5.293-1.174 7.22.752l45.056 45.057c2.249 2.25 2.249 5.897 0 8.146-2.25 2.249-5.896 2.249-8.146 0l-41.751-41.751c-13.35 8.7-22.595 14.496-33.687 17.329l-.857.219c-10.982 2.803-19.662 5.017-27.434 12.288l-21.856 21.857C266.326 173.758 264.852 174.321 263.377 174.321zM276.703 256.716c-4.706 0-9.131-1.833-12.459-5.161-3.328-3.328-5.161-7.753-5.161-12.46 0-4.707 1.833-9.132 5.161-12.46l28.669-28.67c.995-.995 2.103-1.866 3.292-2.589 2.718-1.652 6.261-.787 7.914 1.931 1.652 2.719.787 6.262-1.932 7.913-.403.245-.783.545-1.128.89l-28.669 28.67c-1.153 1.152-1.787 2.684-1.787 4.314 0 1.629.635 3.161 1.787 4.314s2.684 1.787 4.313 1.787c1.629 0 3.161-.635 4.314-1.787l23.07-23.07c2.25-2.249 5.896-2.249 8.146 0 2.249 2.25 2.249 5.896 0 8.146l-23.069 23.07C285.834 254.883 281.409 256.716 276.703 256.716z" clip-rule="evenodd"/><path fill="#f3f3f3"  fill-rule="evenodd" d="M265.486,234.388c-4.706,0-9.131-1.833-12.459-5.161
						c-3.328-3.328-5.161-7.753-5.161-12.459c0-4.706,1.833-9.131,5.161-12.459l23.114-23.114c3.328-3.328,7.753-5.161,12.459-5.161
						c4.706,0,9.131,1.833,12.459,5.161l0,0c0,0,0,0,0,0c3.328,3.328,5.161,7.752,5.161,12.459c0,4.706-1.833,9.131-5.161,12.459
						l-23.114,23.114C274.617,232.555,270.193,234.388,265.486,234.388L265.486,234.388z M288.6,187.554
						c-1.629,0-3.161,0.635-4.313,1.787l-23.114,23.114c-1.152,1.152-1.787,2.684-1.787,4.313c0,1.629,0.635,3.161,1.787,4.313
						c1.152,1.152,2.684,1.787,4.313,1.787c1.629,0,3.161-0.635,4.313-1.787l23.114-23.114c1.152-1.152,1.787-2.684,1.787-4.313
						c0-1.629-0.635-3.161-1.787-4.313h0C291.761,188.188,290.229,187.554,288.6,187.554z" clip-rule="evenodd"/><path fill="#f3f3f3"  fill-rule="evenodd" d="M255.95 210.371c-4.512 0-9.024-1.717-12.459-5.152-3.328-3.328-5.161-7.753-5.161-12.459 0-4.706 1.833-9.131 5.161-12.459l15.878-15.878c3.328-3.328 7.753-5.161 12.459-5.161 4.706 0 9.131 1.833 12.459 5.161l0 0c6.87 6.87 6.87 18.048 0 24.918l-15.878 15.878C264.975 208.653 260.462 210.371 255.95 210.371L255.95 210.371zM271.828 170.784c-1.562 0-3.124.595-4.313 1.784l-15.878 15.878c-1.152 1.152-1.787 2.684-1.787 4.313 0 1.629.635 3.161 1.787 4.313 2.378 2.378 6.248 2.378 8.627 0l15.877-15.878c2.378-2.378 2.378-6.248 0-8.627C274.952 171.379 273.39 170.784 271.828 170.784zM284.543 282.421c-4.706 0-9.131-1.833-12.459-5.161-3.328-3.328-5.161-7.753-5.161-12.459 0-4.706 1.833-9.131 5.161-12.459l16.818-16.819c2.25-2.249 5.896-2.249 8.146 0 2.249 2.25 2.249 5.897 0 8.146l-16.818 16.819c-1.152 1.152-1.787 2.684-1.787 4.313 0 1.629.635 3.161 1.787 4.313 2.378 2.378 6.248 2.379 8.626 0l32.003-32.003c2.25-2.249 5.896-2.249 8.146 0 2.249 2.25 2.249 5.897 0 8.146l-32.003 32.003C293.673 280.588 289.249 282.421 284.543 282.421z" clip-rule="evenodd"/><path fill="#f3f3f3"  fill-rule="evenodd" d="M339.794,256.189c-5.161,0-10.014-2.01-13.664-5.66
						l-29.111-29.111c-7.597-7.598-7.597-19.96,0-27.558c7.598-7.598,19.96-7.598,27.558,0l6.217,6.217
						c-1.951-14.183,1.845-26.465,11.098-35.717c2.25-2.249,5.897-2.249,8.146,0c2.249,2.25,2.249,5.897,0,8.146
						c-17.882,17.881-0.96,45.969-0.787,46.251c1.529,2.489,0.953,5.727-1.339,7.536c-2.293,1.809-5.576,1.617-7.642-0.448
						l-23.839-23.839c-3.106-3.106-8.16-3.106-11.266,0c-3.106,3.106-3.106,8.16,0,11.266l29.111,29.111
						c1.474,1.474,3.434,2.286,5.518,2.286c2.085,0,4.044-0.812,5.518-2.286l17.946-17.946c7.261-7.261,11.348-16.863,11.508-27.038
						l0.001-0.065c0.002-0.144,0.004-0.287,0.009-0.431c0.087-4.973,0.326-9.467,0.729-13.736
						c0.979-10.462,6.887-16.883,12.601-23.093c1.514-1.645,3.079-3.347,4.585-5.149c2.04-2.441,5.673-2.765,8.114-0.725
						c2.441,2.04,2.765,5.673,0.725,8.114c-1.682,2.012-3.341,3.816-4.947,5.561c-5.22,5.673-8.991,9.772-9.609,16.371
						c-0.377,3.991-0.6,8.212-0.681,12.906c-0.001,0.038-0.002,0.075-0.003,0.112c-0.003,0.074-0.003,0.149-0.004,0.224
						l-0.001,0.086c-0.207,13.191-5.492,25.622-14.88,35.011l-17.946,17.946C349.808,254.179,344.955,256.189,339.794,256.189z" clip-rule="evenodd"/><path fill="#f3f3f3"  fill-rule="evenodd" d="M404.896 172.167c-1.528 0-2.993-.607-4.073-1.687l-60.63-60.63c-2.249-2.25-2.249-5.897 0-8.146l19.924-19.924c2.25-2.25 5.896-2.25 8.146 0l60.63 60.631c2.249 2.25 2.249 5.897 0 8.146l-19.924 19.924C407.889 171.56 406.424 172.167 404.896 172.167L404.896 172.167zM352.412 105.776l52.485 52.485 11.778-11.778L364.19 93.998 352.412 105.776zM140.47 385.677c-1.487 0-2.962-.575-4.075-1.687l-45.057-45.057c-2.25-2.25-2.25-5.896 0-8.146 2.25-2.25 5.896-2.25 8.146 0l41.751 41.751c13.35-8.699 22.595-14.496 33.687-17.329l.857-.218c10.982-2.803 19.662-5.017 27.434-12.288l21.857-21.856c2.25-2.25 5.896-2.25 8.146 0 2.25 2.25 2.25 5.896 0 8.146l-21.922 21.922c-.042.042-.085.084-.129.125-9.951 9.351-20.922 12.15-32.537 15.114l-.854.218c-9.876 2.522-18.9 8.411-32.559 17.326l-1.6 1.045C142.651 385.37 141.557 385.677 140.47 385.677zM193.33 298.94c-1.946 0-3.845-.986-4.928-2.771-1.651-2.719-.786-6.262 1.932-7.913.403-.245.783-.544 1.127-.888l28.67-28.67c1.153-1.153 1.787-2.685 1.787-4.314 0-1.629-.635-3.161-1.787-4.314-1.152-1.152-2.684-1.787-4.313-1.786-1.629 0-3.161.635-4.314 1.787l-23.07 23.07c-2.25 2.249-5.897 2.249-8.146 0-2.25-2.25-2.25-5.896 0-8.146l23.07-23.07c3.328-3.328 7.753-5.161 12.46-5.161 4.706 0 9.131 1.832 12.459 5.16 3.328 3.328 5.161 7.753 5.161 12.46 0 4.707-1.833 9.132-5.161 12.46l-28.67 28.67c-.995.995-2.103 1.866-3.293 2.589C195.38 298.67 194.348 298.94 193.33 298.94z" clip-rule="evenodd"/><path fill="#f3f3f3"  fill-rule="evenodd" d="M203.92,317.446c-4.706,0-9.131-1.833-12.459-5.161
						c-3.328-3.328-5.161-7.753-5.161-12.459c0-4.706,1.833-9.131,5.161-12.459l23.114-23.114c3.328-3.328,7.753-5.161,12.459-5.161
						c4.706,0,9.131,1.833,12.459,5.161c6.87,6.87,6.87,18.048,0,24.918l-23.114,23.114
						C213.051,315.613,208.627,317.446,203.92,317.446L203.92,317.446z M227.034,270.615c-1.562,0-3.124,0.595-4.313,1.784
						l-23.114,23.114c-1.152,1.152-1.787,2.684-1.787,4.313c0,1.629,0.635,3.161,1.787,4.313v0c1.152,1.152,2.684,1.787,4.313,1.787
						c1.629,0,3.161-0.635,4.313-1.787l23.114-23.114c2.378-2.378,2.378-6.248,0-8.627
						C230.159,271.21,228.596,270.615,227.034,270.615z" clip-rule="evenodd"/><path fill="#f3f3f3"  fill-rule="evenodd" d="M220.693 334.21c-4.512.001-9.024-1.717-12.459-5.152-3.328-3.328-5.161-7.753-5.161-12.459 0-4.706 1.833-9.131 5.16-12.459l15.878-15.878c3.328-3.328 7.753-5.161 12.459-5.161 4.706 0 9.131 1.833 12.459 5.161 6.87 6.87 6.87 18.048 0 24.918l-15.878 15.878C229.717 332.492 225.204 334.209 220.693 334.21L220.693 334.21zM236.57 294.624c-1.562 0-3.124.595-4.313 1.784l-15.878 15.878c-1.152 1.152-1.787 2.684-1.787 4.313 0 1.629.635 3.161 1.787 4.313v0c2.378 2.378 6.248 2.378 8.626 0l15.878-15.878c1.152-1.152 1.787-2.684 1.787-4.313 0-1.629-.635-3.161-1.787-4.313C239.694 295.218 238.133 294.624 236.57 294.624zM199.546 259.644c-1.474 0-2.948-.562-4.073-1.687-2.25-2.25-2.25-5.896 0-8.146l16.819-16.819c1.152-1.152 1.787-2.684 1.787-4.313 0-1.629-.635-3.161-1.787-4.313-2.378-2.378-6.248-2.378-8.627 0l-32.003 32.003c-2.249 2.25-5.896 2.25-8.146 0-2.25-2.25-2.25-5.896 0-8.146l32.003-32.003c6.87-6.87 18.048-6.87 24.918 0 6.87 6.87 6.87 18.048 0 24.918l-16.819 16.819C202.494 259.081 201.02 259.643 199.546 259.644z" clip-rule="evenodd"/><path fill="#f3f3f3"  fill-rule="evenodd" d="M95.408,340.62c-1.303,0-2.613-0.44-3.691-1.341
						c-2.441-2.04-2.766-5.673-0.725-8.113c1.682-2.012,3.342-3.816,4.947-5.561c5.219-5.673,8.991-9.772,9.608-16.371
						c0.376-3.988,0.599-8.208,0.681-12.906c0.001-0.036,0.001-0.071,0.003-0.107c0.003-0.071,0.003-0.142,0.004-0.214l0.001-0.105
						c0.207-13.187,5.492-25.617,14.88-35.006l17.946-17.946c7.535-7.534,19.794-7.534,27.328,0l29.111,29.111
						c3.68,3.681,5.708,8.574,5.708,13.779c0,5.205-2.027,10.099-5.708,13.779c-3.681,3.681-8.574,5.708-13.779,5.708
						c-5.205,0-10.098-2.027-13.779-5.708l-6.217-6.218c1.951,14.183-1.846,26.465-11.098,35.717c-2.25,2.25-5.896,2.25-8.146,0
						c-2.249-2.25-2.249-5.896,0-8.146c17.882-17.882,0.96-45.969,0.787-46.251c-1.529-2.488-0.953-5.727,1.339-7.536
						c2.292-1.809,5.576-1.616,7.641,0.448l23.839,23.839c1.505,1.505,3.505,2.333,5.633,2.333s4.128-0.829,5.633-2.333
						c1.505-1.505,2.333-3.505,2.333-5.633c0-2.128-0.829-4.128-2.333-5.633l-29.111-29.111c-3.043-3.043-7.994-3.043-11.036,0
						l-17.946,17.946c-7.261,7.261-11.348,16.863-11.508,27.038l-0.001,0.082c-0.002,0.138-0.004,0.275-0.008,0.413
						c-0.088,4.977-0.326,9.471-0.729,13.737c-0.979,10.462-6.887,16.883-12.6,23.092c-1.514,1.646-3.08,3.347-4.586,5.149
						C98.691,339.917,97.055,340.62,95.408,340.62z" clip-rule="evenodd"/><path fill="#f3f3f3"  fill-rule="evenodd" d="M128.331,413.387c-1.474,0-2.948-0.562-4.073-1.687
						l-60.63-60.63c-1.08-1.08-1.687-2.545-1.687-4.073s0.607-2.993,1.687-4.073L83.551,323c2.25-2.25,5.896-2.25,8.146,0
						l60.63,60.63c1.08,1.08,1.687,2.545,1.687,4.073c0,1.528-0.607,2.993-1.687,4.073L132.404,411.7
						C131.279,412.825,129.805,413.387,128.331,413.387L128.331,413.387z M75.846,346.997l52.485,52.485l11.778-11.778
						l-52.485-52.485L75.846,346.997z" clip-rule="evenodd"/><g><path fill="#f3f3f3"  fill-rule="evenodd" d="M173.765 199.156c-.61 0-1.23-.098-1.841-.303l-41.804-14.092c-3.014-1.016-4.634-4.284-3.618-7.298 1.016-3.014 4.283-4.634 7.298-3.618l41.804 14.092c3.014 1.016 4.634 4.284 3.618 7.298C178.412 197.639 176.169 199.156 173.765 199.156zM197.913 165.466c-1.734 0-3.448-.78-4.582-2.264l-26.777-35.059c-1.931-2.528-1.447-6.143 1.081-8.074 2.528-1.931 6.143-1.447 8.074 1.081l26.777 35.059c1.931 2.528 1.447 6.143-1.081 8.074C200.361 165.08 199.132 165.466 197.913 165.466zM236.758 151.037c-3.026 0-5.564-2.361-5.745-5.421l-2.595-44.039c-.187-3.176 2.236-5.902 5.411-6.089 3.174-.188 5.902 2.236 6.089 5.411l2.594 44.039c.187 3.176-2.236 5.902-5.411 6.089C236.987 151.034 236.872 151.037 236.758 151.037z" clip-rule="evenodd"/></g><g><path fill="#f3f3f3"  fill-rule="evenodd" d="M366.448 311.029c-.522 0-1.054-.071-1.581-.222l-42.426-12.088c-3.06-.872-4.833-4.058-3.961-7.118.872-3.059 4.059-4.834 7.118-3.961l42.426 12.088c3.059.872 4.833 4.058 3.961 7.118C371.263 309.378 368.956 311.029 366.448 311.029zM329.92 367.485c-1.641 0-3.27-.697-4.409-2.05l-28.414-33.746c-2.049-2.434-1.737-6.067.696-8.116 2.433-2.048 6.067-1.737 8.116.696l28.414 33.746c2.049 2.434 1.737 6.067-.696 8.116C332.546 367.04 331.229 367.485 329.92 367.485zM268.055 393.864c-2.907 0-5.405-2.194-5.72-5.149l-4.685-43.866c-.338-3.163 1.953-6.001 5.116-6.339 3.16-.339 6.001 1.953 6.339 5.116l4.685 43.866c.338 3.163-1.952 6.001-5.116 6.339C268.467 393.853 268.26 393.864 268.055 393.864z" clip-rule="evenodd"/></g></svg>