<svg xmlns="http://www.w3.org/2000/svg" viewBox="0 0 16.933 16.933">
    <path d="M1.853 283.24a.8.8 0 0 0-.795.796v1.851h15.346v-1.851a.799.799 0 0 0-.794-.795H6.351v1.324c0 .353-.53.353-.53 0v-1.324h-.529v1.324c0 .353-.529.353-.529 0v-1.324h-.53v1.324c0 .353-.529.353-.529 0v-1.324h-.529v1.324c0 .353-.53.353-.53 0v-1.324zm5.554.53h3.705v.266a.796.796 0 0 1-.792.793H7.673a.265.265 0 0 1-.266-.264zm-6.579 2.647-.254.383c-.1.15-.024.354.15.402 0 0 .26.074.504.277s.458.492.385 1.027l-.815 4.479a.248.248 0 0 0-.004.047c0 .435.358.793.793.793h3.176a.754.754 0 0 0 .549-.24.998.998 0 0 0 .24-.506l.538-2.958h2.112c.728 0 1.323-.595 1.323-1.323v-.793h5.556c.435 0 .793-.36.793-.796v-.792zm2.017 1.058H5.26c.195 0 .323.204.238.38-.082.17-.139.355-.173.544l-.752 4.15a.265.265 0 0 1-.26.218H2.228a.265.265 0 0 1-.26-.312l.686-3.772v-.002l.006-.034a1.922 1.922 0 0 0-.07-.831.265.265 0 0 1 .254-.341zm4.033.53h.044c-.063.289-.029.542.073.74.145.28.383.434.528.535.29.2.591-.235.3-.436-.144-.1-.29-.21-.359-.343-.058-.111-.082-.254.005-.496h1.527v.793c0 .444-.35.794-.794.794H6.186l.183-1.003c.042-.23.121-.378.206-.463a.39.39 0 0 1 .303-.121z" color="#000" font-family="sans-serif" fill="#f3f3f3" font-weight="400" overflow="visible" transform="translate(0 -280.067)" style="line-height:normal;font-variant-ligatures:normal;font-variant-position:normal;font-variant-caps:normal;font-variant-numeric:normal;font-variant-alternates:normal;font-feature-settings:normal;text-indent:0;text-align:start;text-decoration-line:none;text-decoration-style:solid;text-decoration-color:#000;text-transform:none;text-orientation:mixed;shape-padding:0;isolation:auto;mix-blend-mode:normal"/>
</svg>