<svg xmlns="http://www.w3.org/2000/svg" data-name="Layer 3" viewBox="0 0 24 24"><path fill="#f3f3f3" d="M19.17 16.537l.653-.653a1.249 1.249 0 0 0 0-1.768l-.439-.439a1.279 1.279 0 0 0-1.768 0l-.038.038L12.387 5.929a2.516 2.516 0 0 0-1.633-1.073L6.211 4.03A1.9 1.9 0 0 0 4.03 6.211l.978 5.378a.5.5 0 0 0 .984-.178L5.014 6.033A.888.888 0 0 1 6.033 5.014l4.542.826a1.509 1.509 0 0 1 .98.644l5.3 7.952L16 15.293 7.854 7.146a.5.5 0 0 0-.708.708L15.293 16l-.857.857L9.777 13.75a.5.5 0 0 0-.554.833l4.492 2.995-.038.038a1.249 1.249 0 0 0 0 1.768l.439.439a1.249 1.249 0 0 0 1.768 0l.653-.653 1.847 1.477a1.61 1.61 0 0 0 2.263-2.264zm-3.993 2.579a.212.212 0 0 1-.354 0l-.439-.439a.25.25 0 0 1 0-.354l3.939-3.939a.25.25 0 0 1 .354 0l.439.439a.25.25 0 0 1 0 .354zm3.831.75l-1.759-1.408 1.209-1.209 1.408 1.759a.576.576 0 0 1-.059.8A.623.623 0 0 1 19.008 19.866zM15.5 8H16v.5a.5.5 0 0 0 1 0V8h.5a.5.5 0 0 0 0-1H17V6.5a.5.5 0 0 0-1 0V7h-.5a.5.5 0 0 0 0 1z"/><path fill="#f3f3f3" d="M7.5 11a.5.5 0 0 0-.5.5V12H6.5a.5.5 0 0 0 0 1H7v.5a.5.5 0 0 0 1 0V13h.5a.5.5 0 0 0 0-1H8v-.5A.5.5 0 0 0 7.5 11zM9.5 17a.5.5 0 0 0-.5.5V18H8.5a.5.5 0 0 0 0 1H9v.5a.5.5 0 0 0 1 0V19h.5a.5.5 0 0 0 0-1H10v-.5A.5.5 0 0 0 9.5 17z"/></svg>