<svg xmlns="http://www.w3.org/2000/svg" fill-rule="evenodd" stroke-linejoin="round" stroke-miterlimit="2" clip-rule="evenodd" viewBox="0 0 32 32"><path fill="#f3f3f3" d="M22.123,8.502c-1.869,-0.877 -3.943,-1.469 -6.123,-1.469c-3.296,0 -6.35,1.353 -8.821,3c-3.618,2.412 -5.968,5.43 -5.968,5.43c-0.281,0.362 -0.281,0.868 0,1.23c0,-0 2.35,3.018 5.968,5.43c0.279,0.186 0.565,0.368 0.858,0.544l-6.591,6.628c-0.389,0.391 -0.387,1.025 0.004,1.414c0.391,0.389 1.025,0.387 1.414,-0.004l7.013,-7.051c1.869,0.877 3.943,1.469 6.123,1.469c3.296,-0 6.35,-1.353 8.821,-3c3.618,-2.412 5.968,-5.43 5.968,-5.43c0.281,-0.362 0.281,-0.868 -0,-1.23c-0,0 -2.35,-3.018 -5.968,-5.43c-0.279,-0.186 -0.565,-0.368 -0.858,-0.544l6.746,-6.784c0.389,-0.391 0.387,-1.025 -0.004,-1.414c-0.391,-0.389 -1.025,-0.387 -1.414,0.004l-7.168,7.207Zm0.385,2.45l-1.621,1.63c0.701,0.986 1.113,2.193 1.113,3.496c0,3.328 -2.69,6.028 -6,6.028c-1.295,-0 -2.494,-0.413 -3.475,-1.115l-1.141,1.147c1.435,0.597 2.99,0.985 4.616,0.985c2.886,-0 5.548,-1.222 7.711,-2.664c2.37,-1.579 4.15,-3.438 4.981,-4.381c-0.831,-0.943 -2.611,-2.801 -4.981,-4.381c-0.386,-0.257 -0.787,-0.507 -1.203,-0.745Zm-1.892,-0.934c-1.435,-0.597 -2.99,-0.985 -4.616,-0.985c-2.886,0 -5.548,1.222 -7.711,2.664c-2.37,1.58 -4.15,3.438 -4.981,4.381c0.831,0.943 2.611,2.802 4.981,4.381c0.386,0.257 0.787,0.507 1.203,0.745l1.621,-1.63c-0.701,-0.986 -1.113,-2.193 -1.113,-3.496c0,-3.328 2.69,-6.028 6,-6.028c1.295,0 2.494,0.413 3.475,1.115l1.141,-1.147Zm-1.171,4.014l-0.74,0.744c0.189,0.394 0.295,0.836 0.295,1.302c-0,0.552 -0.448,1 -1,1c-0.429,0 -0.795,-0.271 -0.937,-0.651l-3.1,3.118c0.597,0.356 1.293,0.561 2.037,0.561c2.209,-0 4,-1.806 4,-4.028c-0,-0.747 -0.202,-1.446 -0.555,-2.046Zm-1.408,-1.42c-0.597,-0.357 -1.293,-0.562 -2.037,-0.562c-2.209,0 -4,1.807 -4,4.028c-0,0.747 0.202,1.446 0.555,2.046l3.101,-3.118c-0.383,-0.14 -0.656,-0.508 -0.656,-0.939c-0,-0.552 0.448,-1 1,-1c0.463,-0 0.901,0.105 1.292,0.293l0.745,-0.748Z"/></svg>