<svg xmlns="http://www.w3.org/2000/svg" data-name="Layer 3" viewBox="0 0 24 24"><path fill="#f3f3f3" d="M12.5,4A6.508,6.508,0,0,0,6,10.5v10a.5.5,0,0,0,.724.447L8.5,20.059l1.776.888a.5.5,0,0,0,.448,0l1.776-.888,1.776.888a.5.5,0,0,0,.448,0l1.776-.888,1.776.888A.5.5,0,0,0,19,20.5v-10A6.508,6.508,0,0,0,12.5,4ZM18,15.25a.75.75,0,0,1-1.5,0V12.5a.5.5,0,0,0-1,0v2.75A1.752,1.752,0,0,0,17.25,17a1.72,1.72,0,0,0,.75-.176v2.867l-1.276-.638a.5.5,0,0,0-.448,0l-1.776.888-1.776-.888a.5.5,0,0,0-.448,0l-1.776.888-1.776-.888a.5.5,0,0,0-.448,0L7,19.691V16.824A1.72,1.72,0,0,0,7.75,17,1.752,1.752,0,0,0,9.5,15.25V12.5a.5.5,0,0,0-1,0v2.75a.75.75,0,0,1-1.5,0V10.5a5.5,5.5,0,0,1,11,0Z"/><path fill="#f3f3f3" d="M10.5 11a.5.5 0 0 0 .5-.5v-2a.5.5 0 0 0-1 0v2A.5.5 0 0 0 10.5 11zM14.5 11a.5.5 0 0 0 .5-.5v-2a.5.5 0 0 0-1 0v2A.5.5 0 0 0 14.5 11z"/></svg>