<svg xmlns="http://www.w3.org/2000/svg" data-name="Layer 3" viewBox="0 0 24 24">
    <path fill="#f3f3f3" d="M16.5,4h-8A2.5,2.5,0,0,0,6,6.5v12A2.5,2.5,0,0,0,8.5,21h6A4.505,4.505,0,0,0,19,16.5V6.5A2.5,2.5,0,0,0,16.5,4ZM18,16.5A3.5,3.5,0,0,1,14.5,20h-6A1.5,1.5,0,0,1,7,18.5V6.5A1.5,1.5,0,0,1,8.5,5h8A1.5,1.5,0,0,1,18,6.5Z"/>
    <path fill="#f3f3f3" d="M15.5 6h-6A1.5 1.5 0 0 0 8 7.5v4A1.5 1.5 0 0 0 9.5 13h6A1.5 1.5 0 0 0 17 11.5v-4A1.5 1.5 0 0 0 15.5 6zm.5 5.5a.5.5 0 0 1-.5.5h-6a.5.5 0 0 1-.5-.5v-4A.5.5 0 0 1 9.5 7h6a.5.5 0 0 1 .5.5zM11.5 15H11v-.5a.5.5 0 0 0-1 0V15H9.5a.5.5 0 0 0 0 1H10v.5a.5.5 0 0 0 1 0V16h.5a.5.5 0 0 0 0-1zM16 14h-.5a.5.5 0 0 0 0 1H16a.5.5 0 0 0 0-1zM14.5 16H14a.5.5 0 0 0 0 1h.5a.5.5 0 0 0 0-1z"/>
</svg>