<svg xmlns="http://www.w3.org/2000/svg" data-name="Layer 3" viewBox="0 0 24 24"><path fill="#f3f3f3" d="M9.5 16.25V18.5a.5.5 0 0 0 1 0v-2h.762a1 1 0 0 0 .928-1.371l-1.474-3.687A1.494 1.494 0 0 0 9.323 10.5H8.677a1.494 1.494 0 0 0-1.393.943L5.81 15.129A1 1 0 0 0 6.738 16.5H7.5v2a.5.5 0 0 0 1 0V16.25a.751.751 0 0 0-.75-.75H6.739l1.474-3.686a.5.5 0 0 1 .464-.314h.646a.5.5 0 0 1 .464.314L11.262 15.5H10.25A.751.751 0 0 0 9.5 16.25zM12.81 11.871L14.5 16.1v2.4a.5.5 0 0 0 1 0V16a.5.5 0 0 0-.036-.186L13.738 11.5h4.524l-1.726 4.314A.5.5 0 0 0 16.5 16v2.5a.5.5 0 0 0 1 0V16.1l1.689-4.226a1 1 0 0 0-.927-1.371H13.738A1 1 0 0 0 12.81 11.871zM9 6a2 2 0 1 0 2 2A2 2 0 0 0 9 6zM9 9a1 1 0 1 1 1-1A1 1 0 0 1 9 9zM18 8a2 2 0 1 0-2 2A2 2 0 0 0 18 8zM15 8a1 1 0 1 1 1 1A1 1 0 0 1 15 8zM19.5 4h-1a.5.5 0 0 0 0 1h1a.5.5 0 0 1 .5.5v1a.5.5 0 0 0 1 0v-1A1.5 1.5 0 0 0 19.5 4zM5.5 21h1a.5.5 0 0 0 0-1h-1a.5.5 0 0 1-.5-.5v-1a.5.5 0 0 0-1 0v1A1.5 1.5 0 0 0 5.5 21zM4.5 7A.5.5 0 0 0 5 6.5v-1A.5.5 0 0 1 5.5 5h1a.5.5 0 0 0 0-1h-1A1.5 1.5 0 0 0 4 5.5v1A.5.5 0 0 0 4.5 7zM20.5 18a.5.5 0 0 0-.5.5v1a.5.5 0 0 1-.5.5h-1a.5.5 0 0 0 0 1h1A1.5 1.5 0 0 0 21 19.5v-1A.5.5 0 0 0 20.5 18z"/></svg>