<svg xmlns="http://www.w3.org/2000/svg" enable-background="new 0 0 24 24" viewBox="0 0 24 24">
<path fill="#f3f3f3" d="M21.4,8.1l-9-4c-0.3-0.1-0.6-0.1-0.8,0l-9,4C2.2,8.2,2,8.6,2,9s0.2,0.8,0.6,0.9L4,10.5V15c0,0.4,0.2,0.8,0.6,0.9l7,3
	C11.7,19,11.9,19,12,19s0.3,0,0.4-0.1l2.6-1.1V19c0,0.6,0.4,1,1,1s1-0.4,1-1v-2.1l2.4-1c0.4-0.2,0.6-0.5,0.6-0.9v-4.5l1.4-0.6
	C21.8,9.8,22,9.4,22,9S21.8,8.2,21.4,8.1z M12,6.1L18.5,9L12,11.9L5.5,9L12,6.1z M12,16.9l-6-2.6v-2.8l5.6,2.4l0,0c0,0,0,0,0,0l0,0
	c0.1,0,0.2,0.1,0.3,0.1c0,0,0,0,0.1,0s0,0,0.1,0c0.1,0,0.2,0,0.3-0.1l0,0c0,0,0,0,0,0l0,0l2.6-1.1v2.8L12,16.9z M18,14.3l-1,0.4V12
	c0,0,0,0,0-0.1l1-0.4V14.3z"/>
</svg>