<svg xmlns="http://www.w3.org/2000/svg" data-name="Layer 3" viewBox="0 0 24 24"><path fill="#f3f3f3" d="M12.5 4h0A8.5 8.5 0 1 0 21 12.5 8.5 8.5 0 0 0 12.5 4zm7.4 8.85c-.572 1.078-2.831 1.632-4.032 1.849a18.662 18.662 0 0 0 0-4.4c1.2.217 3.461.777 4.033 1.849A.694.694 0 0 1 19.9 12.851zm-7.053 7.054a.7.7 0 0 1-.7 0c-1.069-.568-1.631-2.826-1.849-4.032a18.67 18.67 0 0 0 4.4 0C14.482 17.076 13.93 19.329 12.851 19.905zM5.1 12.851a.694.694 0 0 1 0-.7c.569-1.072 2.835-1.633 4.032-1.849a18.67 18.67 0 0 0 0 4.4C7.929 14.483 5.667 13.923 5.1 12.851zM12.149 5.1a.694.694 0 0 1 .7 0c1.069.568 1.631 2.826 1.849 4.032a18.6 18.6 0 0 0-4.4 0C10.518 7.924 11.07 5.671 12.149 5.1zm2.7 9.755a18.133 18.133 0 0 1-4.7 0 18.231 18.231 0 0 1 0-4.7 18.231 18.231 0 0 1 4.7 0A18.231 18.231 0 0 1 14.85 14.85zm4.9-4.23a10.408 10.408 0 0 0-4.007-1.364A10.413 10.413 0 0 0 14.38 5.249 7.417 7.417 0 0 1 19.751 10.62zM10.62 5.249A10.408 10.408 0 0 0 9.256 9.256 10.413 10.413 0 0 0 5.249 10.62 7.423 7.423 0 0 1 10.62 5.249zM5.249 14.38a10.42 10.42 0 0 0 4.007 1.364 10.42 10.42 0 0 0 1.364 4.007A7.417 7.417 0 0 1 5.249 14.38zm9.131 5.371a10.42 10.42 0 0 0 1.364-4.007 10.42 10.42 0 0 0 4.007-1.364A7.417 7.417 0 0 1 14.38 19.751zM19.5 4h-1a.5.5 0 0 0 0 1h1a.5.5 0 0 1 .5.5v1a.5.5 0 0 0 1 0v-1A1.5 1.5 0 0 0 19.5 4zM5.5 21h1a.5.5 0 0 0 0-1h-1a.5.5 0 0 1-.5-.5v-1a.5.5 0 0 0-1 0v1A1.5 1.5 0 0 0 5.5 21zM4.5 7A.5.5 0 0 0 5 6.5v-1A.5.5 0 0 1 5.5 5h1a.5.5 0 0 0 0-1h-1A1.5 1.5 0 0 0 4 5.5v1A.5.5 0 0 0 4.5 7zM20.5 18a.5.5 0 0 0-.5.5v1a.5.5 0 0 1-.5.5h-1a.5.5 0 0 0 0 1h1A1.5 1.5 0 0 0 21 19.5v-1A.5.5 0 0 0 20.5 18z"/></svg>