<svg xmlns="http://www.w3.org/2000/svg" data-name="Layer 3" viewBox="0 0 24 24"><path fill="#f3f3f3" d="M14.5 6a2 2 0 1 0 2-2A2 2 0 0 0 14.5 6zm3 0a1 1 0 1 1-1-1A1 1 0 0 1 17.5 6zM5.5 6a.5.5 0 0 0 0 1h3a.5.5 0 0 0 0-1zM5 12.5a.5.5 0 0 0 .5.5h3a.5.5 0 0 0 0-1h-3A.5.5 0 0 0 5 12.5zM4.5 10h2a.5.5 0 0 0 0-1h-2a.5.5 0 0 0 0 1zM9.5 4a.5.5 0 0 0 0 1h4a.5.5 0 0 0 0-1zM4.5 16h2a.5.5 0 0 0 0-1h-2a.5.5 0 0 0 0 1z"/><path fill="#f3f3f3" d="M20.5,15a.5.5,0,0,0,0-1h-1a.5.5,0,0,0-.447.276L17.191,18H15.758l.873-2.038a1.5,1.5,0,0,0-.546-1.839l-1.911-1.274,1.036-1.726,1.491.6a1.5,1.5,0,0,0,1.618-.332l1.535-1.533a1.916,1.916,0,0,0,0-2.708.5.5,0,0,0-.667-.037l-2.25,1.8L11.868,6.375a1.494,1.494,0,0,0-1.731.281L8.646,8.146a1.913,1.913,0,0,0,0,2.708.5.5,0,0,0,.666.037l2.214-1.772.781.52L6.732,18H4.5a.5.5,0,0,0-.5.5v2a.5.5,0,0,0,1,0V19H8v1.5a.5.5,0,0,0,1,0V19h3v1.5a.5.5,0,0,0,1,0V19h3v1.5a.5.5,0,0,0,1,0V19h3v1.5a.5.5,0,0,0,1,0v-2a.5.5,0,0,0-.5-.5H18.309l.5-1H20.5a.5.5,0,0,0,0-1H19.309l.5-1Zm-7.861,3H10.4l1.781-2.85,1.206.6Zm1.054,0,.782-2.342a.5.5,0,0,0-.251-.6l-2-1a.5.5,0,0,0-.648.182L9.223,18H7.935l5.481-8.223a.5.5,0,0,0-.139-.693l-1.5-1a.5.5,0,0,0-.59.025L9.123,9.761a.909.909,0,0,1,.231-.907l1.49-1.491a.5.5,0,0,1,.577-.093l5.355,2.677a.5.5,0,0,0,.536-.056l2.065-1.652a.914.914,0,0,1-.231.907l-1.534,1.535a.5.5,0,0,1-.539.11l-1.887-.755a.5.5,0,0,0-.615.207l-1.5,2.5a.5.5,0,0,0,.152.673l2.308,1.539a.5.5,0,0,1,.181.612L14.67,18Z"/></svg>