<svg xmlns="http://www.w3.org/2000/svg" data-name="Layer 1" viewBox="0 0 32 32"><path fill="#f3f3f3" d="M23.3662,8.6338a2.1311,2.1311,0,0,0-2.293-.49L2.3877,15.2617a2.1563,2.1563,0,0,0,.1484,4.08L10.24,21.6523a.1582.1582,0,0,1,.1065.1055l2.3115,7.707a2.1292,2.1292,0,0,0,1.9864,1.5342,2.1611,2.1611,0,0,0,2.0937-1.3867l7.1181-18.6855A2.1322,2.1322,0,0,0,23.3662,8.6338Z"/><path fill="#f3f3f3" d="M23.03,22.53a1.0046,1.0046,0,0,1-.3017-1.9526A9,9,0,1,0,11.4229,9.2715,1,1,0,1,1,9.5166,8.668,11,11,0,1,1,23.332,22.4834.9706.9706,0,0,1,23.03,22.53Z"/></svg>