<svg xmlns="http://www.w3.org/2000/svg" data-name="Layer 3" viewBox="0 0 24 24">
    <path fill="#f3f3f3" d="M19.975,11.8l-2.2-.735L15.146,8.439A1.511,1.511,0,0,0,14.086,8H9.914a1.49,1.49,0,0,0-1.06.439L7.293,10H5.5a.5.5,0,0,0,0,1h2a.5.5,0,0,0,.354-.146L9.561,9.146A.5.5,0,0,1,9.914,9h4.172a.5.5,0,0,1,.353.146l2.707,2.708a.5.5,0,0,0,.2.12l2.316.772a.5.5,0,0,1,.342.475V15.5a.5.5,0,0,1-.5.5H18.429a1.99,1.99,0,0,0-3.858,0H10.929a1.99,1.99,0,0,0-3.858,0H5.5a.5.5,0,0,0,0,1H7.071a1.99,1.99,0,0,0,3.858,0h3.642a1.99,1.99,0,0,0,3.858,0H19.5A1.5,1.5,0,0,0,21,15.5V13.221A1.5,1.5,0,0,0,19.975,11.8ZM9,17.5a1,1,0,1,1,1-1A1,1,0,0,1,9,17.5Zm7.5,0a1,1,0,1,1,1-1A1,1,0,0,1,16.5,17.5Z"/>
    <path fill="#f3f3f3" d="M4.5 15h2a.5.5 0 0 0 0-1h-2a.5.5 0 0 0 0 1zM13.5 13a.5.5 0 0 0 0-1h-5a.5.5 0 0 0 0 1zM4.5 9h2a.5.5 0 0 0 0-1h-2a.5.5 0 0 0 0 1zM6.5 7h5a.5.5 0 0 0 0-1h-5a.5.5 0 0 0 0 1zM6.5 13a.5.5 0 0 0 0-1h-1a.5.5 0 0 0 0 1z"/>
</svg>