<svg xmlns="http://www.w3.org/2000/svg" viewBox="0 0 64 64">
    <path fill="#f3f3f3" d="m59.12,59.12c-1.17,1.17-3.07,1.17-4.24,0-.63-.62-.91-1.46-.86-2.28l-6.21-6.2-3.54,3.53c-.39.39-1.02.39-1.41,0l-1.42-1.41c-.39-.39-.39-1.03,0-1.42l1.42-1.41,7.07-7.07,1.41-1.42c.39-.39,1.03-.39,1.42,0l1.41,1.42c.39.39.39,1.02,0,1.41l-3.53,3.54,6.2,6.21c.82-.05,1.66.23,2.28.86,1.17,1.17,1.17,3.07,0,4.24Z"/>
    <rect fill="#f3f3f3" width="6.07" height="6.07" x="22.35" y="22.35"/>
    <polygon fill="#f3f3f3" points="48.52 41.45 30.42 23.35 30.42 29.01 45.69 44.28 48.52 41.45"/>
    <path fill="#f3f3f3" d="m28.56,55.12c-.17.11-.36.17-.56.17s-.39-.06-.56-.17c-3.41-2.28-6.48-5.08-9.12-8.32-8.05-9.88-10.5-21.69-11.14-29.86-.04-.53.34-1,.87-1.07,3.04-.38,6.06-1.11,8.97-2.17,3.65-1.33,7.15-3.17,10.4-5.48.35-.25.81-.25,1.16,0,3.25,2.31,6.74,4.15,10.4,5.48,2.91,1.06,5.93,1.79,8.97,2.17.53.07.92.54.87,1.07-.39,5.01-1.48,11.4-4.11,17.87l2.29,2.29c4.43-10.21,4.94-20,5.01-23.93-3.05-.08-7.25-.57-12-2.29-5.33-1.94-9.36-4.71-12-6.88-2.64,2.16-6.67,4.94-12,6.88-4.75,1.73-8.95,2.21-12,2.29.1,5.43,1.03,22.05,12,35.52,4.1,5.04,8.49,8.26,12,10.31,3.35-1.96,7.5-5,11.44-9.66l-2.13-2.13c-2.56,3.07-5.5,5.73-8.75,7.91Z"/>
    <path fill="#f3f3f3" d="m29.81,20.39c.07.01.14.04.21.06.06.02.11.03.17.05.08.03.15.08.22.12.04.02.08.04.12.06.11.07.21.16.31.25l12.33,12.33c2.16-5.58,3.16-11.06,3.58-15.55-2.86-.43-5.7-1.14-8.45-2.14-3.6-1.31-7.06-3.1-10.29-5.32-3.23,2.23-6.69,4.02-10.29,5.32-2.75,1-5.58,1.72-8.45,2.14.73,7.83,3.2,18.7,10.62,27.81,2.37,2.91,5.1,5.45,8.12,7.54,2.93-2.03,5.57-4.48,7.89-7.28l-14.96-14.96c-.13-.13-.23-.27-.32-.43-.02-.04-.04-.07-.06-.11-.08-.15-.14-.32-.17-.49,0,0,0-.01,0-.02-.02-.12-.04-.24-.04-.37v-7.07c0-1.1.9-2,2-2h7.07c.13,0,.26.01.39.04Z"/>
    <polygon fill="#f3f3f3" points="41.45 48.51 44.28 45.69 29.01 30.42 23.35 30.42 41.44 48.51 41.45 48.51"/>
</svg>