<svg xmlns="http://www.w3.org/2000/svg" data-name="Layer 3" viewBox="0 0 24 24">
    <path fill="#f3f3f3" d="M12.5,4A8.5,8.5,0,1,0,21,12.5,8.51,8.51,0,0,0,12.5,4Zm4.931,2.862-.706.706a6.476,6.476,0,0,0-8.45,0l-.706-.706a7.46,7.46,0,0,1,9.862,0Zm-1.262,8.245a1.487,1.487,0,0,0-.105,1.549A5.428,5.428,0,0,1,14,17.767V14.5l0-.011A2.483,2.483,0,0,0,14.489,14l.011,0h2.235A4.457,4.457,0,0,1,16.169,15.107ZM16.964,13H14.949a2.476,2.476,0,0,0,0-1h2.015A4.518,4.518,0,0,1,16.964,13ZM12.5,14A1.5,1.5,0,1,1,14,12.5,1.5,1.5,0,0,1,12.5,14Zm-2.449-1H8.036a4.518,4.518,0,0,1,0-1h2.015A2.476,2.476,0,0,0,10.051,13Zm-1.22,2.106A4.417,4.417,0,0,1,8.265,14H10.5l.011,0a2.483,2.483,0,0,0,.491.491l0,.011v3.268a5.43,5.43,0,0,1-2.064-1.112A1.489,1.489,0,0,0,8.831,15.106ZM12,14.949a2.494,2.494,0,0,0,1,0v3a2.5,2.5,0,0,1-1,0ZM14.5,11l-.011,0a2.475,2.475,0,0,0-3.978,0L10.5,11H8.265a4.417,4.417,0,0,1,.566-1.106,1.487,1.487,0,0,0,.1-1.55,5.4,5.4,0,0,1,7.129,0,1.489,1.489,0,0,0,.105,1.55A4.447,4.447,0,0,1,16.734,11ZM5,12.5A7.462,7.462,0,0,1,6.862,7.57l1.1,1.1a.5.5,0,0,1,.053.642,5.5,5.5,0,0,0,0,6.374.5.5,0,0,1-.053.642l-1.1,1.1A7.462,7.462,0,0,1,5,12.5Zm2.569,5.638.706-.706a6.476,6.476,0,0,0,8.45,0l.706.706a7.46,7.46,0,0,1-9.862,0Zm10.569-.707-1.1-1.1a.5.5,0,0,1-.053-.642,5.5,5.5,0,0,0,0-6.374.5.5,0,0,1,.053-.642l1.1-1.1a7.46,7.46,0,0,1,0,9.862Z"/>
    <path fill="#f3f3f3" d="M7.208 9.671A.5.5 0 1 0 6.327 9.2 6.978 6.978 0 0 0 5.8 10.468a.5.5 0 0 0 .957.291A6.1 6.1 0 0 1 7.208 9.671zM18 8.995a.5.5 0 0 0-.2.677 5.916 5.916 0 0 1 .449 1.086.5.5 0 1 0 .957-.289 6.964 6.964 0 0 0-.525-1.27A.5.5 0 0 0 18 8.995z"/>
</svg>