<svg version="1.0" xmlns="http://www.w3.org/2000/svg"
 width="100.000000pt" height="100.000000pt" viewBox="0 0 100.000000 100.000000"
 preserveAspectRatio="xMidYMid meet">

<g transform="translate(0.000000,100.000000) scale(0.100000,-0.100000)"
fill="#f3f3f3" stroke="none">
<path d="M388 961 c-75 -24 -118 -52 -172 -112 -55 -61 -87 -141 -94 -236 -4
-69 -6 -72 -31 -75 l-26 -3 0 -255 0 -255 435 0 435 0 0 255 0 255 -26 3 c-25
3 -27 6 -31 75 -7 95 -39 175 -95 237 -103 114 -252 156 -395 111z m255 -55
c30 -14 76 -49 101 -76 65 -69 89 -128 90 -215 l1 -70 -101 -3 -102 -3 5 43
c11 109 -102 190 -197 141 -54 -28 -83 -78 -77 -136 l4 -48 -101 3 -101 3 1
70 c1 85 25 144 84 209 79 86 155 118 267 112 52 -2 86 -10 126 -30z m-94
-220 c44 -23 64 -84 41 -127 -9 -16 -22 -19 -90 -19 -86 0 -100 9 -100 62 1
74 81 119 149 84z m351 -406 l0 -220 -400 0 -400 0 0 220 0 220 400 0 400 0 0
-220z"/>
<path d="M470 625 c-26 -32 13 -81 48 -59 22 14 27 41 12 59 -16 19 -44 19
-60 0z"/>
<path d="M365 409 c-15 -24 16 -30 141 -27 107 3 129 6 129 18 0 12 -23 15
-132 18 -89 2 -134 -1 -138 -9z"/>
</g>
</svg>
