<svg version="1.0" xmlns="http://www.w3.org/2000/svg"
 width="96.000000pt" height="96.000000pt" viewBox="0 0 96.000000 96.000000"
 preserveAspectRatio="xMidYMid meet">

<g transform="translate(0.000000,96.000000) scale(0.100000,-0.100000)"
fill="#f3f3f3" stroke="none">
<path d="M614 926 c-178 -78 -198 -324 -36 -422 106 -64 215 -50 299 38 92 95
83 255 -18 342 -21 18 -56 38 -78 44 -51 16 -128 15 -167 -2z m86 -56 c0 -17
44 -34 88 -34 36 -1 46 -6 60 -28 15 -25 15 -28 -1 -46 -24 -26 -22 -87 3
-112 19 -19 19 -22 4 -45 -14 -21 -21 -24 -58 -19 -50 7 -83 -7 -96 -41 -8
-22 -12 -23 -42 -14 -18 5 -33 9 -33 9 -1 0 1 15 3 33 3 28 -2 38 -29 61 -18
15 -40 25 -50 23 -12 -3 -19 3 -23 24 -8 41 1 57 32 57 47 0 96 86 61 108 -8
4 -3 12 12 20 28 16 69 18 69 4z"/>
<path d="M660 750 c-29 -29 -26 -74 6 -99 35 -27 59 -26 89 4 30 30 31 54 4
89 -25 32 -70 35 -99 6z"/>
<path d="M115 711 c-76 -35 -105 -85 -105 -180 0 -61 16 -89 45 -77 11 4 14
20 13 63 -2 104 46 153 151 153 39 0 53 4 58 16 16 43 -89 59 -162 25z"/>
<path d="M327 683 c-17 -16 -4 -43 36 -76 87 -71 128 -201 83 -269 -22 -33
-73 -58 -120 -58 l-36 0 0 46 c0 88 -58 141 -144 132 -56 -7 -92 -36 -106 -87
-12 -45 2 -100 33 -129 42 -39 117 -49 154 -20 15 12 180 -6 253 -28 77 -23
104 -38 146 -83 20 -22 53 -52 74 -66 32 -22 42 -25 59 -15 47 24 12 75 -112
162 -35 24 -95 146 -119 240 -11 46 -27 96 -35 112 -20 39 -91 115 -124 132
-32 16 -33 16 -42 7z m-113 -302 c25 -28 17 -79 -15 -104 -68 -50 -142 48 -83
108 22 21 77 19 98 -4z m310 -118 c7 -20 5 -21 -29 -10 l-35 10 22 24 c23 25
28 22 42 -24z"/>
</g>
</svg>
