<svg xmlns="http://www.w3.org/2000/svg" data-name="Layer 3" viewBox="0 0 24 24">
    <path fill="#f3f3f3" d="M8.5 15A1.5 1.5 0 1 0 10 16.5 1.5 1.5 0 0 0 8.5 15zm0 2a.5.5 0 1 1 .5-.5A.5.5 0 0 1 8.5 17zM7.5 10.5h3a.5.5 0 0 0 .429-.757l-1.5-2.5a.52.52 0 0 0-.858 0l-1.5 2.5A.5.5 0 0 0 7.5 10.5zM9 8.472L9.617 9.5H8.383zM15.146 9.854a.5.5 0 0 0 .708 0l.646-.647.646.647a.5.5 0 0 0 .708-.708L17.207 8.5l.647-.646a.5.5 0 0 0-.708-.708l-.646.647-.646-.647a.5.5 0 0 0-.708.708l.647.646-.647.646A.5.5 0 0 0 15.146 9.854zM17.5 15h-2a.5.5 0 0 0-.5.5v2a.5.5 0 0 0 .5.5h2a.5.5 0 0 0 .5-.5v-2A.5.5 0 0 0 17.5 15zM17 17H16V16h1zM13.5 13.5H10v-1h6.5A.5.5 0 0 0 17 12V11a.5.5 0 0 0-1 0v.5H9.5A.5.5 0 0 0 9 12v2a.5.5 0 0 0 .5.5H13V16H11.5a.5.5 0 0 0 0 1h2a.5.5 0 0 0 .5-.5V14A.5.5 0 0 0 13.5 13.5z"/>
    <path fill="#f3f3f3" d="M19.5,4H5.5A1.5,1.5,0,0,0,4,5.5v14A1.5,1.5,0,0,0,5.5,21h14A1.5,1.5,0,0,0,21,19.5V5.5A1.5,1.5,0,0,0,19.5,4Zm0,16H5.5a.5.5,0,0,1-.5-.5V15h.5a.5.5,0,0,0,0-1H5V7H6.5a.5.5,0,0,0,0-1H5V5.5A.5.5,0,0,1,5.5,5h14a.5.5,0,0,1,.5.5V8h-.5a.5.5,0,0,0,0,1H20v3H18.5a.5.5,0,0,0,0,1H20v5h-.5a.5.5,0,0,0,0,1H20v.5A.5.5,0,0,1,19.5,20Z"/>
</svg>