<svg xmlns="http://www.w3.org/2000/svg" viewBox="0 0 64 64">
    <g data-name="subscription a">
    <path fill="#f3f3f3" d="M10.37 28a22 22 0 0 1 43.26 0h2A24 24 0 0 0 8.34 28zM53.63 36a22 22 0 0 1-43.26 0h-2a24 24 0 0 0 47.32 0z"/>
    <polygon fill="#f3f3f3" stroke="#f3f3f3" stroke-linecap="round" stroke-miterlimit="20" points="54.55 31.41 51.1 35.5 58 35.5 54.55 31.41"/>
    <polygon fill="#f3f3f3" stroke="#f3f3f3" stroke-linecap="round" stroke-miterlimit="20" points="9.55 32.59 13 28.5 6.1 28.5 9.55 32.59"/>
    <path fill="#f3f3f3" d="M33.25,20.8a9.9,9.9,0,0,1,3.32.57,7,7,0,0,1,2.79,1.8l-2.22,2.16a5.13,5.13,0,0,0-1.71-1.4,5,5,0,0,0-2.17-.54v7.28l-.06,0q1.33.37,2.54.82a8.33,8.33,0,0,1,2.14,1.14,5.19,5.19,0,0,1,1.48,1.74A5.56,5.56,0,0,1,39.91,37a5.92,5.92,0,0,1-.54,2.56,6.1,6.1,0,0,1-1.45,2,6.71,6.71,0,0,1-2.13,1.28,8.89,8.89,0,0,1-2.54.55v2.22H31.59V43.37a10.55,10.55,0,0,1-3.78-.66,6.86,6.86,0,0,1-3-2.3l2.37-2.13a4.81,4.81,0,0,0,1.91,1.8,5.9,5.9,0,0,0,2.5.69V33.19a15.47,15.47,0,0,1-2.39-.79,7.84,7.84,0,0,1-2-1.22A5.39,5.39,0,0,1,25.8,29.4a5.75,5.75,0,0,1-.51-2.53,5.33,5.33,0,0,1,.52-2.39,6.16,6.16,0,0,1,1.39-1.85,6.91,6.91,0,0,1,2-1.26,7.57,7.57,0,0,1,2.37-.57V18.58h1.67Zm-1.67,2.59a4.46,4.46,0,0,0-2.41,1.13,3.1,3.1,0,0,0-.92,2.36,2.76,2.76,0,0,0,.28,1.28,3.12,3.12,0,0,0,.74.94,4.44,4.44,0,0,0,1.06.68,8.57,8.57,0,0,0,1.25.46Zm1.67,17.39a5.36,5.36,0,0,0,1.43-.37,4.07,4.07,0,0,0,1.17-.74A3.3,3.3,0,0,0,37,37.14a2.74,2.74,0,0,0-.32-1.37,3.28,3.28,0,0,0-.83-1,4.88,4.88,0,0,0-1.19-.68q-.68-.28-1.36-.49Z"/></g>
</svg>