<svg xmlns="http://www.w3.org/2000/svg" fill="none" viewBox="0 0 24 24"><path fill="#f3f3f3" fill="#000" fill-rule="evenodd" d="M11.934 2.253a.75.75 0 0 1 .724.388l1.894 3.47a1.25 1.25 0 0 0 1.847.402l.151-.113a.75.75 0 0 1 1.2.6v3.5a4.24 4.24 0 0 1-1.254 3.014 4.24 4.24 0 0 1-2.332 1.184.75.75 0 1 1-.233-1.482 2.74 2.74 0 0 0 1.508-.765 2.74 2.74 0 0 0 .811-1.951V8.198a2.751 2.751 0 0 1-3.015-1.368l-1.068-1.958L11 8.372a2.752 2.752 0 0 1-3.25 1.806v.322a2.75 2.75 0 0 0 2.75 2.75.75.75 0 0 1 0 1.5 4.25 4.25 0 0 1-4.25-4.25V9a.75.75 0 0 1 1.136-.643l.362.217a1.25 1.25 0 0 0 1.829-.676l1.712-5.135a.75.75 0 0 1 .645-.51zm6.737 12.412a.75.75 0 0 1-.335 1.006l-12 6a.75.75 0 0 1-.671-1.342l12-6a.75.75 0 0 1 1.006.336z" clip-rule="evenodd"/><path fill="#f3f3f3" fill="#000" fill-rule="evenodd" d="M5.329 14.665a.75.75 0 0 0 .335 1.006l12 6a.75.75 0 0 0 .671-1.342l-12-6a.75.75 0 0 0-1.006.336Z" clip-rule="evenodd"/></svg>