<svg xmlns="http://www.w3.org/2000/svg" enable-background="new 0 0 48 48" viewBox="0 0 48 48">
	<path fill="#f3f3f3" d="M48,32H31V21c0-0.552,0.449-1,1-1c0.551,0,1,0.448,1,1l0,7c0,1.654,1.346,3,3,3s3-1.346,3-3V18c0-3.309-2.691-6-6-6h-4.111
	C30.19,10.728,31,8.958,31,7c0-3.859-3.14-7-7-7s-7,3.141-7,7c0,1.958,0.81,3.728,2.111,5H15c-3.309,0-6,2.691-6,6v10
	c0,1.654,1.346,3,3,3s3-1.346,3-3v-7c0-0.552,0.449-1,1-1s1,0.448,1,1v11H0v2h17v11c0,1.654,1.346,3,3,3s3-1.346,3-3V34h2v11
	c0,1.654,1.346,3,3,3s3-1.346,3-3V34h17V32z M19,7c0-2.757,2.243-5,5-5s5,2.243,5,5s-2.243,5-5,5S19,9.757,19,7z M23,32v-1
	c0-0.552,0.449-1,1-1s1,0.448,1,1v1H23z M29,21v24c0,0.552-0.449,1-1,1s-1-0.448-1-1V31c0-1.654-1.346-3-3-3s-3,1.346-3,3v14
	c0,0.552-0.449,1-1,1s-1-0.448-1-1V21c0-1.654-1.346-3-3-3s-3,1.346-3,3v7c0,0.552-0.449,1-1,1s-1-0.448-1-1V18c0-2.206,1.794-4,4-4
	h18c2.206,0,4,1.794,4,4v10c0,0.552-0.449,1-1,1s-1-0.448-1-1l0-7c0-1.654-1.346-3-3-3C30.346,18,29,19.346,29,21z"/>
</svg>