<svg xmlns="http://www.w3.org/2000/svg" viewBox="0 0 100 100">
    <path fill="#f3f3f3" d="M23.421 56.947a9.963 9.963 0 0 0 8.065-8.285 9.88 9.88 0 0 0-4.057-9.604l-.003-.002-.005-.004-.023-.013a9.66 9.66 0 0 0-2.663-1.341 9.95 9.95 0 0 0-3.074-.488 9.92 9.92 0 0 0-9.459 6.874c-1.694 5.211 1.17 10.83 6.38 12.524a9.88 9.88 0 0 0 3.086.493c.579 0 1.164-.051 1.753-.154zm4.513-6.838c-.039.082-.083.161-.125.241a6.904 6.904 0 0 1-.462.769 7.02 7.02 0 0 1-.355.464c-.059.07-.114.143-.175.211a7.08 7.08 0 0 1-.588.587c-.029.025-.061.046-.09.071a6.844 6.844 0 0 1-.576.44c-.085.058-.174.11-.262.165a6.785 6.785 0 0 1-.77.414c-.058.026-.118.047-.177.072a17.13 17.13 0 0 1-.112-1.952c0-3.244.886-6.344 2.576-9.057.101.112.202.223.294.34.068.086.141.17.205.26.176.247.335.503.476.769.016.029.036.056.051.085.153.297.279.607.387.922.032.093.053.19.081.285.066.226.125.454.168.687.021.118.037.237.052.357a7.569 7.569 0 0 1 .061 1.026 6.89 6.89 0 0 1-.053.7c-.013.108-.02.217-.038.325-.057.34-.133.68-.243 1.016a7.207 7.207 0 0 1-.325.803zm-12.879-5.098a6.929 6.929 0 0 1 6.606-4.801c.727 0 1.449.115 2.152.343.193.062.375.151.562.23a20.002 20.002 0 0 0-3.134 10.807c0 .838.068 1.67.171 2.494a6.887 6.887 0 0 1-1.899-.329c-3.641-1.183-5.641-5.106-4.458-8.744zm42.088 16.06c-3.096-1.16-6.642-.686-9.319 1.259a9.899 9.899 0 0 0-3.964 6.391c-.06.355-.104.715-.126 1.079a9.968 9.968 0 0 0 1.885 6.422 9.974 9.974 0 0 0 8.047 4.094 9.886 9.886 0 0 0 5.842-1.9 9.844 9.844 0 0 0 3.972-6.47 9.885 9.885 0 0 0-1.778-7.412 9.9 9.9 0 0 0-4.559-3.463zm-3.5 2.365c.074 0 .146.018.22.02a17.03 17.03 0 0 1-6.636 4.321l.006-.019c.111-.272.24-.535.384-.79.04-.071.086-.138.129-.208a6.791 6.791 0 0 1 .543-.768c.131-.161.271-.315.417-.464.064-.065.125-.132.192-.195a6.864 6.864 0 0 1 4.745-1.897zm6.874 8.039a6.865 6.865 0 0 1-2.771 4.513 6.9 6.9 0 0 1-4.08 1.329 6.967 6.967 0 0 1-5.62-2.857 6.98 6.98 0 0 1-1.287-3.415 20.025 20.025 0 0 0 10.3-6.712 6.893 6.893 0 0 1 2.215 1.966 6.9 6.9 0 0 1 1.243 5.176zm-25.449-9.122a9.994 9.994 0 0 0-8.292-1.581c-.354.089-.706.19-1.05.319a9.951 9.951 0 0 0-4.537 3.462 9.859 9.859 0 0 0-1.781 7.39 9.868 9.868 0 0 0 3.973 6.492 9.86 9.86 0 0 0 5.834 1.898 9.988 9.988 0 0 0 8.057-4.102 9.967 9.967 0 0 0 1.884-6.425 9.91 9.91 0 0 0-4.088-7.453zm-5.945 1.112c.198-.003.395.014.592.028.175.012.351.016.523.041.209.03.415.085.62.135.151.037.306.062.455.109.244.077.478.181.712.285.105.046.215.08.318.132.334.168.658.363.965.586.243.176.469.37.685.572.066.062.126.128.189.192a6.845 6.845 0 0 1 .601.696c.129.173.25.353.362.537.041.067.086.132.125.201.145.256.275.519.386.792l.005.016a17.12 17.12 0 0 1-6.647-4.312c.036-.001.072-.009.109-.01zm.091 13.868a6.88 6.88 0 0 1-4.07-1.325 6.892 6.892 0 0 1-2.773-4.532 6.873 6.873 0 0 1 1.241-5.154 7.022 7.022 0 0 1 2.204-1.966 20.096 20.096 0 0 0 10.315 6.7 6.971 6.971 0 0 1-1.286 3.413 6.98 6.98 0 0 1-5.631 2.864zm12.205-34.607c.575 0 1.141-.049 1.692-.143a9.904 9.904 0 0 0 7.967-7.435l.001-.005.001-.005v-.005c.187-.75.282-1.541.282-2.351 0-5.483-4.461-9.943-9.944-9.943s-9.943 4.46-9.943 9.943c0 .82.096 1.619.283 2.366a9.916 9.916 0 0 0 9.661 7.578zm-1.111-3.094c-.119-.019-.231-.053-.348-.078a6.837 6.837 0 0 1-.713-.184c-.131-.043-.256-.096-.383-.146a7.03 7.03 0 0 1-.614-.273 6.871 6.871 0 0 1-.923-.572c-.109-.08-.218-.159-.322-.245a6.909 6.909 0 0 1-.518-.48c-.084-.086-.173-.167-.253-.258a6.918 6.918 0 0 1-.519-.67c-.043-.062-.094-.119-.135-.183a6.975 6.975 0 0 1-.503-.939c4.016-1.608 8.663-1.612 12.688-.007a6.888 6.888 0 0 1-.5.933c-.055.087-.123.164-.182.248-.148.21-.3.416-.469.607-.089.1-.187.191-.281.286a7.033 7.033 0 0 1-.491.455c-.109.091-.224.175-.339.259a6.737 6.737 0 0 1-.541.357 6.921 6.921 0 0 1-.376.21c-.197.101-.4.188-.606.27-.129.051-.256.105-.389.148a7.24 7.24 0 0 1-.71.183c-.117.025-.231.059-.35.078-.363.058-.734.094-1.112.094s-.748-.035-1.111-.093zm1.111-13.793c3.773 0 6.847 3.026 6.936 6.778a19.981 19.981 0 0 0-6.925-1.225c-2.406 0-4.733.417-6.946 1.232.085-3.755 3.16-6.785 6.935-6.785zm10.33 24.365a9.925 9.925 0 0 0 7.702 6.715h.005a9.86 9.86 0 0 0 4.817-.33c5.213-1.694 8.078-7.317 6.386-12.534a9.914 9.914 0 0 0-9.454-6.865c-1.043 0-2.08.165-3.077.488a9.71 9.71 0 0 0-2.7 1.365c-3.555 2.519-5.034 7.005-3.679 11.161zm2.577-3.991c.015-.118.03-.236.051-.353.044-.237.103-.47.171-.7.026-.088.046-.179.075-.266.108-.319.236-.631.391-.931.006-.012.015-.023.021-.035.149-.285.32-.558.509-.821.056-.078.119-.15.178-.226.097-.124.205-.241.312-.359a17.004 17.004 0 0 1 2.583 9.069c0 .642-.037 1.284-.108 1.923-.064-.027-.13-.048-.193-.077a6.66 6.66 0 0 1-.782-.422c-.074-.046-.149-.09-.221-.138a6.887 6.887 0 0 1-.647-.492c-.008-.007-.018-.013-.025-.021a6.968 6.968 0 0 1-.603-.6c-.055-.061-.105-.127-.158-.19a6.754 6.754 0 0 1-.832-1.254c-.041-.078-.084-.155-.122-.235a6.972 6.972 0 0 1-.326-.809 7.034 7.034 0 0 1-.243-1.013c-.019-.109-.025-.218-.039-.327a7.07 7.07 0 0 1-.053-.694 7.592 7.592 0 0 1 .061-1.029zm6.879-6.024a6.922 6.922 0 0 1 6.601 4.792c1.182 3.644-.819 7.571-4.455 8.753a6.993 6.993 0 0 1-1.9.326c.101-.821.167-1.645.167-2.47 0-3.889-1.083-7.596-3.144-10.822.191-.082.378-.173.576-.237a6.986 6.986 0 0 1 2.155-.342zM47.984 51.586c0-3.614-2.94-6.555-6.555-6.555s-6.555 2.94-6.555 6.555 2.94 6.555 6.555 6.555 6.555-2.941 6.555-6.555zm-6.554 3.555c-1.96 0-3.555-1.595-3.555-3.555s1.595-3.555 3.555-3.555 3.555 1.595 3.555 3.555-1.595 3.555-3.555 3.555z"/>
    <path fill="#f3f3f3" d="M95.039 86.477H56.204c13.574-5.77 23.117-19.236 23.117-34.891 0-20.893-16.998-37.891-37.891-37.891S3.539 30.693 3.539 51.586 20.537 89.477 41.43 89.477h53.609a1.5 1.5 0 1 0 0-3zm-88.5-34.891c0-19.239 15.652-34.891 34.891-34.891 19.239 0 34.891 15.652 34.891 34.891S60.669 86.477 41.43 86.477c-19.239 0-34.891-15.652-34.891-34.891z"/>
</svg>