<svg xmlns="http://www.w3.org/2000/svg" fill="none" viewBox="0 0 120 120">
    <path fill="#f3f3f3" d="M39.759 30.055a5.01 5.01 0 0 0-5.002 5.007v1.427l19.203-.026c2.166-.003 4.2.542 6.002 1.49a12.796 12.796 0 0 1 5.998-1.507l18.765-.026v-1.427A4.99 4.99 0 0 0 79.729 30l-39.969.055zm-24.73 19.462 1.152-.002a17.134 17.134 0 0 0-.2 2.628l.03 20.93c.002 1.857.221 3.684.635 5.441l-1.628.003a4.99 4.99 0 0 1-4.998-4.993l.008-19a5.01 5.01 0 0 1 5.002-5.007zm4.985 23.906a19.99 19.99 0 0 0 .748 5.086c1.976 6.965 7.622 11.99 14.273 11.98l50-.069c6.65-.01 12.282-5.049 14.238-12.02.481-1.713.74-3.542.737-5.443l-.029-20.93a13.483 13.483 0 0 0-.26-2.627c-1.031-5.155-5.01-8.993-9.756-8.987l-24 .033c-1.954.003-3.777.657-5.315 1.787a1.16 1.16 0 0 1-1.364.002c-1.542-1.125-3.366-1.775-5.32-1.772l-24 .033c-4.746.006-8.714 3.856-9.732 9.013a13.48 13.48 0 0 0-.252 2.629l.029 20.93c0 .119 0 .237.003.355zm85.004 4.97-1.628.002c.409-1.758.623-3.586.62-5.443l-.029-20.93a17.026 17.026 0 0 0-.207-2.628l1.255-.002a4.988 4.988 0 0 1 4.998 4.993l-.007 19a5.011 5.011 0 0 1-5.002 5.007z"/>
</svg>