<svg xmlns="http://www.w3.org/2000/svg" version="1.1" width="56px" height="56px" style="shape-rendering:geometricPrecision; text-rendering:geometricPrecision; image-rendering:optimizeQuality; fill-rule:evenodd; clip-rule:evenodd" xmlns:xlink="http://www.w3.org/1999/xlink">
<g><path style="opacity:1" fill="#000d6d" d="M 0.5,-0.5 C 2.5,-0.5 4.5,-0.5 6.5,-0.5C 13.1457,6.81233 20.1457,13.8123 27.5,20.5C 34.8543,13.8123 41.8543,6.81233 48.5,-0.5C 50.5,-0.5 52.5,-0.5 54.5,-0.5C 54.5,0.166667 54.8333,0.5 55.5,0.5C 55.5,2.5 55.5,4.5 55.5,6.5C 48.1877,13.1457 41.1877,20.1457 34.5,27.5C 41.1877,34.8543 48.1877,41.8543 55.5,48.5C 55.5,50.5 55.5,52.5 55.5,54.5C 54.8333,54.5 54.5,54.8333 54.5,55.5C 52.5,55.5 50.5,55.5 48.5,55.5C 41.8543,48.1877 34.8543,41.1877 27.5,34.5C 20.1457,41.1877 13.1457,48.1877 6.5,55.5C 4.5,55.5 2.5,55.5 0.5,55.5C 0.5,54.8333 0.166667,54.5 -0.5,54.5C -0.5,52.5 -0.5,50.5 -0.5,48.5C 6.81233,41.8543 13.8123,34.8543 20.5,27.5C 13.8123,20.1457 6.81233,13.1457 -0.5,6.5C -0.5,4.5 -0.5,2.5 -0.5,0.5C 0.166667,0.5 0.5,0.166667 0.5,-0.5 Z"/></g>
</svg>
