<svg id="Layer_1" data-name="Layer 1" xmlns="http://www.w3.org/2000/svg" viewBox="0 0 516.01 598.68"><defs><style>.cls-1{fill:#f9fafe;}</style></defs><path class="cls-1" d="M33,1.1C13.7,3.9,3.9,14,1,33.8-.3,42.9-.3,464.9,1,475c1.9,14.8,8.2,22.3,24,29.1,39,16.6,216,90.7,221,92.5a33.12,33.12,0,0,0,24,0c7-2.4,222.4-92.7,227.5-95.3,10.2-5.2,15.6-13.2,17.5-25.8,1.4-9.8,1.4-434.7-.1-443.5-2-12.9-7.9-21.9-17.3-26.7C487-.1,494.9.1,258,.2,137.3.2,36,.6,33,1.1ZM403.4,78c19.3,1.9,29.9,10.1,34.2,26.5,1,3.6,1.4,13,1.4,33.7V167H405.1l-.3-26.1-.3-26.1-3.3-2.9c-3-2.7-3.8-2.9-11.8-2.9-10.5,0-13.9,1.5-15.4,6.8-.8,2.6-1,27.4-.8,81l.3,77.4,3.3,2.9c3,2.7,3.7,2.9,11.8,2.9,9.2,0,13.4-1.4,15.6-5.3,1-1.6,1.4-9.9,1.6-31l.3-28.7H440v30.7c0,32.6-.7,38.9-5,47.3s-13.2,14.6-23.8,16.9c-7.6,1.6-39.4,1.4-45.8-.3-6.8-1.8-15-6.3-18-9.9a44.39,44.39,0,0,1-8.3-17.5c-1.8-8.5-1.5-170.1.3-176.9,4.6-17.1,14.9-25.4,34.1-27.2A130,130,0,0,1,403.4,78ZM153.5,95.5v16l-21.2.3L111,112v64h41v32H111v69l21.8.2,21.7.3.3,15.7.3,15.8H76V194.7c0-62.9.3-114.7.7-115s17.8-.6,38.7-.5l38.1.3ZM232.9,80c18.5,2,28.9,9.9,33.8,25.6,1.6,5.3,1.8,10.1,1.8,46.4,0,44.6-.3,48-5.8,57.1-3.8,6.3-9.5,10.9-17.4,14-4.9,1.9-8.3,2.3-22.5,2.7l-16.8.4V309H171V194.7c0-62.9.3-114.7.7-115C172.7,78.6,222.4,78.9,232.9,80ZM319,194V309H284V194.7c0-62.9.3-114.7.7-115s8.2-.7,17.5-.7H319ZM129.3,367.3a48.41,48.41,0,0,1,8.3,4.6l2.4,1.9-3.5,4.2c-2,2.4-4.4,5.4-5.5,6.7l-1.9,2.4-4.2-2.8c-4.8-3.2-14.9-4.4-19.9-2.3-9.1,3.8-13.5,16.8-9.1,26.5,4.5,9.9,16.2,14.1,26.5,9.4,2.2-1,2.6-1.8,2.6-5.6V408H111V394h31v31.7l-4,2.7c-19.1,12.6-46.3,8.7-57.1-8.2-12.8-20.1-4-46,18.4-54.3C107.1,363,121.4,363.6,129.3,367.3Zm298.7-.4a37.15,37.15,0,0,1,8.3,4.3l2.8,2.3-4.2,6c-2.3,3.3-4.4,6.2-4.6,6.4s-2.6-.8-5.4-2.4a29,29,0,0,0-11.5-3.3c-7.1-.5-9.4.5-9.4,4.4,0,3.2,2.9,4.9,12.6,7.3,10.2,2.6,14.3,4.3,18.4,7.8,8.8,7.3,7.8,22.7-2,30.5-10.4,8.2-32.9,7.1-46.5-2.2-2.5-1.7-4.5-3.3-4.5-3.6a50.56,50.56,0,0,1,5.1-6.4l5.1-5.9,3.8,2.5a35,35,0,0,0,17.7,5.4c6.1,0,8.3-1.4,8.3-5.1s-2.1-4.6-15.5-8c-14.9-3.7-21.5-10-21.5-20.4.1-9.6,5.7-17.3,15.2-20.7C407.1,363.4,420.1,363.8,428,366.9Zm-217.2,32c7.8,18.7,14.2,34.4,14.2,35s-3.3,1.1-9.4,1.1h-9.4l-2.5-6.3-2.5-6.2-13.8-.3-13.9-.2-2.5,6.2-2.5,6.3-9.3.3c-6.3.2-9.2-.1-9.2-.8s6.4-16.4,14.2-35.1L178.4,365h18.2Zm49.6-21.7c4.1,6.8,8,12.9,8.5,13.7.6,1,3.1-2.4,9.2-12.3l8.4-13.6H306v70H288l-.2-20.3-.3-20.2-8.8,13.2c-4.8,7.3-8.9,13.3-9.2,13.3s-4.2-5.7-8.8-12.7l-8.2-12.8L252,415l-.5,19.5h-18l-.3-34.8L233,365h19.8ZM375,373v8H338v11h33v15H338v12h37v16H320V365h55ZM347.5,520.6c-5.5,1.9-28.3,9.4-50.6,16.8l-40.5,13.3-47-16.2c-25.8-8.9-47.6-16.4-48.4-16.8s43-.5,97.5-.5h99Z" transform="translate(-0.03 -0.17)"/><path class="cls-1" d="M206,153v42h9.1c10.3,0,14.8-1.5,17-5.8,1-2.1,1.5-9.7,1.7-32.2.4-35.3.1-39.3-3.8-43.2-2.8-2.7-3.1-2.8-13.4-2.8H206Z" transform="translate(-0.03 -0.17)"/><path class="cls-1" d="M183.7,396.2c-2,5.1-3.7,9.7-3.7,10.1s3.4.7,7.5.7,7.5-.1,7.5-.3-1.7-4.7-3.8-10.1l-3.8-9.7Z" transform="translate(-0.03 -0.17)"/></svg>