<svg xmlns="http://www.w3.org/2000/svg" xmlns:xlink="http://www.w3.org/1999/xlink" viewBox="0,0,256,256" width="144px" height="144px"><g fill="#f9fafe" fill-rule="nonzero" stroke="none" stroke-width="1" stroke-linecap="butt" stroke-linejoin="miter" stroke-miterlimit="10" stroke-dasharray="" stroke-dashoffset="0" font-family="none" font-weight="none" font-size="none" text-anchor="none" style="mix-blend-mode: normal"><g transform="scale(5.33333,5.33333)"><path d="M30.5,5c-6.904,0 -12.5,5.596 -12.5,12.5c0,1.149 0.168,2.257 0.458,3.314l-13.019,13.019c-0.281,0.281 -0.439,0.663 -0.439,1.061v6.606c0,0.828 0.671,1.5 1.5,1.5h7c0.829,0 1.5,-0.672 1.5,-1.5v-2.5h3.5c0.829,0 1.5,-0.672 1.5,-1.5v-3.5h3.5c0.829,0 1.5,-0.672 1.5,-1.5v-3.788c1.661,0.817 3.524,1.288 5.5,1.288c6.904,0 12.5,-5.596 12.5,-12.5c0,-6.904 -5.596,-12.5 -12.5,-12.5zM32,19c-1.657,0 -3,-1.343 -3,-3c0,-1.657 1.343,-3 3,-3c1.657,0 3,1.343 3,3c0,1.657 -1.343,3 -3,3z"></path></g></g></svg>