<svg xmlns="http://www.w3.org/2000/svg" version="1.1" width="51px" height="32px" style="shape-rendering:geometricPrecision; text-rendering:geometricPrecision; image-rendering:optimizeQuality; fill-rule:evenodd; clip-rule:evenodd" xmlns:xlink="http://www.w3.org/1999/xlink">
<g><path style="opacity:1" fill="#a0c8fa" d="M 34.5,-0.5 C 34.8333,-0.5 35.1667,-0.5 35.5,-0.5C 40.1667,4.83333 45.1667,9.83333 50.5,14.5C 50.5,15.1667 50.5,15.8333 50.5,16.5C 45.1667,21.1667 40.1667,26.1667 35.5,31.5C 35.1667,31.5 34.8333,31.5 34.5,31.5C 34.5,27.5 34.5,23.5 34.5,19.5C 22.8333,19.5 11.1667,19.5 -0.5,19.5C -0.5,16.8333 -0.5,14.1667 -0.5,11.5C 11.1667,11.5 22.8333,11.5 34.5,11.5C 34.5,7.5 34.5,3.5 34.5,-0.5 Z"/></g>
</svg>
