<svg id="Layer_1" data-name="Layer 1" xmlns="http://www.w3.org/2000/svg" viewBox="0 0 256 258.79"><defs><style>.cls-1{fill:#f9fafe;}</style></defs><path class="cls-1" d="M127.78,0C60.42,0,5.24,52.41,0,119l68.72,28.68a35.85,35.85,0,0,1,20.43-6.37c.68,0,1.36,0,2,.06l30.57-44.71V96c0-26.9,21.69-48.79,48.35-48.79S218.44,69.14,218.44,96s-21.69,48.81-48.35,48.81l-1.1,0L125.4,176.21c0,.58,0,1.16,0,1.73a36.26,36.26,0,0,1-71.87,7.22L4.41,164.65C19.63,219,69.08,258.79,127.78,258.79c70.82,0,128.22-57.94,128.22-129.4S198.6,0,127.78,0ZM80.35,196.33,64.6,189.76a27.11,27.11,0,0,0,49.65-1.32,27.58,27.58,0,0,0,0-21A27.06,27.06,0,0,0,79.5,152.19L95.78,159a20.3,20.3,0,0,1,10.79,26.46A20,20,0,0,1,80.35,196.33ZM202.31,96a32.22,32.22,0,1,0-32.22,32.51A32.42,32.42,0,0,0,202.31,96ZM145.94,96a24.21,24.21,0,1,1,24.2,24.42A24.31,24.31,0,0,1,145.94,96Z"/></svg>