<?xml version="1.0" encoding="utf-8"?>
<!-- Generator: Adobe Illustrator 25.0.1, SVG Export Plug-In . SVG Version: 6.00 Build 0)  -->
<svg version="1.1" id="Layer_1" xmlns="http://www.w3.org/2000/svg" xmlns:xlink="http://www.w3.org/1999/xlink" x="0px" y="0px"
	 viewBox="0 0 928 205" style="enable-background:new 0 0 928 205;" xml:space="preserve">
<style type="text/css">
	.st0{opacity:0.349;fill-rule:evenodd;clip-rule:evenodd;fill:#424770;enable-background:new    ;}
	.st1{opacity:0.502;fill-rule:evenodd;clip-rule:evenodd;fill:#424770;enable-background:new    ;}
</style>
<path class="st0" d="M879,203.8H49c-25.7,0-46.5-20.8-46.5-46.5V48.7C2.5,23,23.3,2.2,49,2.2h830c25.7,0,46.5,20.8,46.5,46.5v108.6
	C925.5,183,904.7,203.8,879,203.8z M917.8,48.7c0-21.4-17.4-38.8-38.8-38.8H49c-21.4,0-38.8,17.4-38.8,38.8v108.6
	c0,21.4,17.4,38.8,38.8,38.8h830c21.4,0,38.8-17.4,38.8-38.8V48.7z"/>
<path class="st1" d="M473.3,145.2h-10.1l7.8-19.3l-15.6-39.3h10.7l9.8,26.8l9.9-26.8h10.7L473.3,145.2z M434.4,128.3
	c-3.5,0-7.1-1.3-10.4-3.8v2.9h-10.4V68.6h10.4v20.7c3.3-2.5,6.9-3.8,10.4-3.8c10.9,0,18.4,8.8,18.4,21.4
	C452.9,119.5,445.4,128.3,434.4,128.3L434.4,128.3z M432.2,94.5c-2.9,0-5.7,1.2-8.2,3.7v17.5c2.4,2.4,5.3,3.7,8.2,3.7
	c5.9,0,10-5.1,10-12.4C442.2,99.5,438.1,94.5,432.2,94.5L432.2,94.5z M371.3,124.4c-3.2,2.5-6.8,3.8-10.4,3.8
	c-10.9,0-18.4-8.8-18.4-21.4c0-12.6,7.6-21.4,18.4-21.4c3.6,0,7.2,1.3,10.4,3.8V68.6h10.5v58.7h-10.5V124.4z M371.3,98.2
	c-2.4-2.5-5.2-3.7-8.1-3.7c-6,0-10,5.1-10,12.4s4.1,12.4,10,12.4c2.9,0,5.7-1.2,8.1-3.7V98.2z M309.1,109.7
	c0.7,6.2,5.6,10.4,12.4,10.4c3.8,0,7.9-1.4,12.2-3.8v8.7c-4.6,2.1-9.3,3.2-13.9,3.2c-12.3,0-21-9-21-21.7c0-12.3,8.5-21.1,20.2-21.1
	c10.7,0,18,8.4,18,20.4c0,1.1,0,2.5-0.2,3.8H309.1z M318.6,93.6c-5.1,0-9,3.8-9.5,9.4h17.8C326.6,97.4,323.3,93.6,318.6,93.6
	L318.6,93.6z M281.6,100v27.3h-10.4V86.5h10.4v4.1c2.9-3.3,6.5-5.1,10-5.1c1.1,0,2.3,0.1,3.4,0.4v9.3c-1.1-0.3-2.4-0.5-3.7-0.5
	C288,94.7,284.3,96.6,281.6,100z M235,109.7c0.7,6.2,5.5,10.4,12.4,10.4c3.8,0,7.9-1.4,12.2-3.8v8.7c-4.7,2.1-9.3,3.2-13.9,3.2
	c-12.3,0-21-9-21-21.7c0-12.3,8.5-21.1,20.2-21.1c10.7,0,18,8.4,18,20.4c0,1.1,0,2.5-0.2,3.8H235z M244.5,93.6c-5.1,0-9,3.8-9.5,9.4
	h17.8C252.5,97.4,249.1,93.6,244.5,93.6z M198.5,127.3l-8.3-27.8l-8.2,27.8h-9.4l-14-40.8H169l8.2,27.8l8.2-27.8h9.5l8.2,27.8
	l8.2-27.8h10.4l-14,40.8H198.5z M134.7,128.3c-12.3,0-21.1-8.9-21.1-21.4c0-12.6,8.7-21.4,21.1-21.4s21,8.8,21,21.4
	C155.6,119.4,147,128.3,134.7,128.3z M134.7,94.2c-6.1,0-10.4,5.1-10.4,12.7c0,7.5,4.2,12.7,10.4,12.7c6,0,10.3-5.1,10.3-12.7
	C144.9,99.4,140.7,94.2,134.7,94.2z M88.8,107.1h-9.4v20.2H68.9V71.1h19.8c11.4,0,19.6,7.4,19.6,18S100.2,107.1,88.8,107.1
	L88.8,107.1z M87.3,79.6h-7.9v19h7.9c6,0,10.3-3.8,10.3-9.5C97.6,83.5,93.4,79.6,87.3,79.6z M864.4,111.2h-43.1
	c1,10.3,8.5,13.4,17.1,13.4c8.7,0,15.6-1.8,21.6-4.9v17.7c-6,3.3-13.9,5.7-24.4,5.7c-21.5,0-36.5-13.4-36.5-40
	c0-22.4,12.8-40.2,33.7-40.2c20.9,0,31.8,17.8,31.8,40.4C864.7,105.4,864.5,110,864.4,111.2z M832.7,80.8c-5.5,0-11.6,4.2-11.6,14.1
	h22.8C843.8,85,838.1,80.8,832.7,80.8z M763.5,143.1c-7.7,0-12.4-3.3-15.6-5.6l0,24.9l-22,4.7l0-102.8h19.4l1.1,5.4
	c3-2.8,8.6-6.9,17.3-6.9c15.5,0,30,13.9,30,39.6C793.6,130.4,779.2,143.1,763.5,143.1L763.5,143.1z M758.3,82.4
	c-5,0-8.2,1.8-10.5,4.4l0.1,32.7c2.1,2.3,5.2,4.2,10.4,4.2c8.1,0,13.6-8.9,13.6-20.7C772,91.4,766.4,82.4,758.3,82.4L758.3,82.4z
	 M694,64.3h22.1v77.2H694V64.3z M694,39.7l22.1-4.7v17.9L694,57.6V39.7z M670.4,89.2v52.3h-22V64.3h19l1.4,6.5
	c5.2-9.5,15.5-7.6,18.4-6.5v20.2C684.4,83.7,675.6,82.4,670.4,89.2L670.4,89.2z M623.2,114.4c0,13,13.9,8.9,16.7,7.8v17.9
	c-2.9,1.6-8.3,2.9-15.5,2.9c-13.1,0-22.9-9.6-22.9-22.7l0.1-70.7l21.5-4.6l0,19.1h16.7v18.8h-16.7L623.2,114.4z M595.8,118.2
	c0,15.9-12.6,24.9-30.9,24.9c-7.6,0-15.9-1.5-24.1-5v-21c7.4,4,16.8,7,24.1,7c4.9,0,8.4-1.3,8.4-5.4c0-10.5-33.5-6.6-33.5-30.9
	c0-15.6,11.9-24.9,29.8-24.9c7.3,0,14.6,1.1,21.9,4v20.7c-6.7-3.6-15.2-5.7-21.9-5.7c-4.6,0-7.5,1.3-7.5,4.8
	C562.1,96.6,595.8,91.9,595.8,118.2z"/>
</svg>
