<svg version="1.0" xmlns="http://www.w3.org/2000/svg"
 width="512.000000pt" height="512.000000pt" viewBox="0 0 512.000000 512.000000"
 preserveAspectRatio="xMidYMid meet">

<g transform="translate(0.000000,512.000000) scale(0.100000,-0.100000)"
fill="#000000" stroke="none">
<path fill="#f3f3f3" d="M2175 5109 c-665 -64 -1270 -393 -1720 -934 -69 -83 -230 -319 -284
-416 l-31 -55 91 -65 c51 -35 95 -66 100 -70 5 -3 -7 -43 -27 -90 -221 -517
-268 -1089 -134 -1619 201 -798 808 -1457 1585 -1723 468 -160 953 -179 1432
-56 159 40 284 88 468 179 739 363 1238 1061 1351 1890 21 153 24 496 5 655
-58 494 -221 912 -505 1290 -101 134 -296 335 -426 439 -535 427 -1236 639
-1905 575z m483 -430 c808 -89 1508 -614 1806 -1356 97 -243 145 -472 153
-739 20 -625 -204 -1192 -633 -1604 -515 -495 -1281 -672 -1916 -444 -355 128
-675 416 -827 745 -89 194 -131 381 -131 590 0 325 111 607 324 822 70 71 193
167 213 167 6 0 18 -9 27 -19 17 -18 15 -22 -32 -80 -92 -114 -185 -321 -227
-502 -56 -248 -6 -547 132 -780 302 -509 1008 -684 1586 -393 237 120 473 358
597 604 184 365 229 820 119 1205 -53 183 -146 378 -257 535 -86 122 -308 344
-432 432 -120 85 -318 188 -458 238 -598 213 -1253 113 -1843 -281 -86 -58
-87 -58 -105 -38 -21 24 -21 24 65 139 317 423 835 707 1391 763 82 9 358 6
448 -4z m-356 -915 c415 -69 782 -302 1004 -635 68 -101 134 -240 155 -325 10
-38 9 -48 -2 -55 -29 -18 -47 -6 -130 89 -202 230 -476 413 -749 500 -168 54
-256 67 -455 67 -202 0 -276 -12 -455 -71 -213 -71 -389 -184 -554 -354 -119
-124 -194 -232 -270 -391 -105 -220 -157 -448 -160 -706 l-1 -143 -28 -9 c-25
-9 -28 -7 -43 27 -25 58 -72 251 -85 349 -24 179 5 438 72 637 139 416 473
769 879 927 277 109 547 139 822 93z m312 -1050 c237 -61 406 -281 406 -527 0
-120 -51 -261 -121 -342 -18 -20 -28 -39 -23 -44 5 -4 46 -34 92 -65 l82 -58
-30 -37 c-132 -167 -353 -263 -569 -248 -294 21 -532 220 -607 507 -26 98 -24
246 5 340 38 124 87 206 176 296 126 127 276 192 444 193 46 1 111 -6 145 -15z"/>
</g>
</svg>
