<svg xmlns="http://www.w3.org/2000/svg" version="1.1" width="512px" height="368px" style="shape-rendering:geometricPrecision; text-rendering:geometricPrecision; image-rendering:optimizeQuality; fill-rule:evenodd; clip-rule:evenodd" xmlns:xlink="http://www.w3.org/1999/xlink">
<g><path style="opacity:0.998" fill="#f9fafe" d="M 270.5,-0.5 C 281.833,-0.5 293.167,-0.5 304.5,-0.5C 370.737,10.899 412.237,49.2324 429,114.5C 430.896,125.413 431.896,136.413 432,147.5C 476.344,163.337 502.844,194.337 511.5,240.5C 511.5,250.5 511.5,260.5 511.5,270.5C 500.833,324.5 468.5,356.833 414.5,367.5C 308.5,367.5 202.5,367.5 96.5,367.5C 42.5,356.833 10.1667,324.5 -0.5,270.5C -0.5,260.5 -0.5,250.5 -0.5,240.5C 3.30607,215.888 13.8061,194.554 31,176.5C 29.3483,134.551 47.1816,104.384 84.5,86C 99.9648,79.916 115.965,77.916 132.5,80C 140.056,80.9637 147.222,83.1303 154,86.5C 177.603,37.059 216.436,8.05903 270.5,-0.5 Z"/></g>
<g><path style="opacity:1" fill="#00337C" d="M 250.5,127.5 C 256.233,126.895 261.566,128.062 266.5,131C 284.728,148.559 302.228,166.726 319,185.5C 320.5,201.333 313.333,208.5 297.5,207C 288.4,199.903 279.9,192.069 272,183.5C 271.667,214.167 271.333,244.833 271,275.5C 266.095,286.915 257.928,290.082 246.5,285C 243.131,282.635 240.964,279.468 240,275.5C 239.667,245.167 239.333,214.833 239,184.5C 233.167,190.333 227.333,196.167 221.5,202C 210.272,210.535 200.772,209.035 193,197.5C 190.878,192.348 191.211,187.348 194,182.5C 212.424,163.574 231.258,145.24 250.5,127.5 Z"/></g>
</svg>
