<svg id="visual" viewBox="0 0 900 600" width="900" height="600" xmlns="http://www.w3.org/2000/svg" xmlns:xlink="http://www.w3.org/1999/xlink" version="1.1"><rect width="900" height="600" fill="#151521"></rect><g><g transform="translate(254 234)"><path d="M87.6 -29.3C98.9 6.3 83.4 49.9 53.4 71.1C23.4 92.3 -21.1 91.3 -53.6 68.8C-86.2 46.3 -106.8 2.5 -95.9 -32.6C-85 -67.7 -42.5 -94 -2.2 -93.3C38.1 -92.6 76.3 -64.9 87.6 -29.3Z" stroke="#F7760E" fill="none" stroke-width="20"></path></g><g transform="translate(755 328)"><path d="M76.2 -25.8C87.6 10.4 78 52.3 51.7 71.6C25.4 90.8 -17.7 87.3 -50.5 64.6C-83.2 42 -105.5 0.2 -95.4 -34.2C-85.2 -68.7 -42.6 -95.9 -5.1 -94.2C32.4 -92.5 64.8 -62 76.2 -25.8Z" stroke="#F7760E" fill="none" stroke-width="20"></path></g><g transform="translate(839 7)"><path d="M75.9 -25C86.3 7.4 74.4 46.8 45.5 69.3C16.7 91.9 -29.3 97.7 -57.7 77.5C-86.2 57.2 -97.2 11 -84.7 -24.3C-72.2 -59.6 -36.1 -84 -1.7 -83.5C32.7 -82.9 65.4 -57.4 75.9 -25Z" stroke="#F7760E" fill="none" stroke-width="20"></path></g><g transform="translate(26 455)"><path d="M52.7 -16.8C60 5.2 51.7 32.5 33.5 45.6C15.4 58.6 -12.8 57.4 -30.8 44C-48.8 30.5 -56.8 4.7 -50 -16.6C-43.2 -38 -21.6 -54.9 0.6 -55.1C22.7 -55.3 45.5 -38.7 52.7 -16.8Z" stroke="#F7760E" fill="none" stroke-width="20"></path></g><g transform="translate(540 97)"><path d="M52.8 -17.7C60.3 5.9 52.6 33.9 34.5 46.9C16.4 59.9 -12.2 58 -32.3 43.6C-52.4 29.2 -64 2.3 -57.2 -20.3C-50.5 -43 -25.2 -61.4 -1.3 -61C22.7 -60.5 45.3 -41.3 52.8 -17.7Z" stroke="#F7760E" fill="none" stroke-width="20"></path></g><g transform="translate(445 493)"><path d="M59.9 -18.1C68.3 6.4 59.4 37.9 39.4 51.9C19.4 65.8 -11.6 62.2 -31.7 46.9C-51.7 31.5 -60.8 4.4 -53.7 -18.3C-46.6 -41 -23.3 -59.3 1.2 -59.7C25.8 -60.1 51.5 -42.6 59.9 -18.1Z" stroke="#F7760E" fill="none" stroke-width="20"></path></g></g></svg>