<?xml version="1.0" standalone="no"?>
<svg xmlns:xlink="http://www.w3.org/1999/xlink" id="wave" style="transform:rotate(0deg); transition: 0.3s" viewBox="0 0 1440 430" version="1.1" xmlns="http://www.w3.org/2000/svg"><defs><linearGradient id="sw-gradient-0" x1="0" x2="0" y1="1" y2="0"><stop stop-color="rgba(243, 106, 62, 1)" offset="0%"/><stop stop-color="rgba(255, 179, 11, 1)" offset="100%"/></linearGradient></defs><path style="transform:translate(0, 0px); opacity:1" fill="url(#sw-gradient-0)" d="M0,129L60,143.3C120,158,240,186,360,229.3C480,272,600,330,720,301C840,272,960,158,1080,157.7C1200,158,1320,272,1440,322.5C1560,373,1680,358,1800,322.5C1920,287,2040,229,2160,222.2C2280,215,2400,258,2520,258C2640,258,2760,215,2880,222.2C3000,229,3120,287,3240,301C3360,315,3480,287,3600,272.3C3720,258,3840,258,3960,272.3C4080,287,4200,315,4320,279.5C4440,244,4560,143,4680,121.8C4800,100,4920,158,5040,157.7C5160,158,5280,100,5400,64.5C5520,29,5640,14,5760,35.8C5880,57,6000,115,6120,114.7C6240,115,6360,57,6480,28.7C6600,0,6720,0,6840,43C6960,86,7080,172,7200,186.3C7320,201,7440,143,7560,164.8C7680,186,7800,287,7920,329.7C8040,373,8160,358,8280,351.2C8400,344,8520,344,8580,344L8640,344L8640,430L8580,430C8520,430,8400,430,8280,430C8160,430,8040,430,7920,430C7800,430,7680,430,7560,430C7440,430,7320,430,7200,430C7080,430,6960,430,6840,430C6720,430,6600,430,6480,430C6360,430,6240,430,6120,430C6000,430,5880,430,5760,430C5640,430,5520,430,5400,430C5280,430,5160,430,5040,430C4920,430,4800,430,4680,430C4560,430,4440,430,4320,430C4200,430,4080,430,3960,430C3840,430,3720,430,3600,430C3480,430,3360,430,3240,430C3120,430,3000,430,2880,430C2760,430,2640,430,2520,430C2400,430,2280,430,2160,430C2040,430,1920,430,1800,430C1680,430,1560,430,1440,430C1320,430,1200,430,1080,430C960,430,840,430,720,430C600,430,480,430,360,430C240,430,120,430,60,430L0,430Z"/><defs><linearGradient id="sw-gradient-1" x1="0" x2="0" y1="1" y2="0"><stop stop-color="rgba(243, 106, 62, 1)" offset="0%"/><stop stop-color="rgba(255, 179, 11, 1)" offset="100%"/></linearGradient></defs><path style="transform:translate(0, 50px); opacity:0.9" fill="url(#sw-gradient-1)" d="M0,258L60,272.3C120,287,240,315,360,336.8C480,358,600,373,720,344C840,315,960,244,1080,229.3C1200,215,1320,258,1440,258C1560,258,1680,215,1800,215C1920,215,2040,258,2160,243.7C2280,229,2400,158,2520,107.5C2640,57,2760,29,2880,50.2C3000,72,3120,143,3240,193.5C3360,244,3480,272,3600,243.7C3720,215,3840,129,3960,129C4080,129,4200,215,4320,243.7C4440,272,4560,244,4680,243.7C4800,244,4920,272,5040,279.5C5160,287,5280,272,5400,236.5C5520,201,5640,143,5760,129C5880,115,6000,143,6120,143.3C6240,143,6360,115,6480,100.3C6600,86,6720,86,6840,71.7C6960,57,7080,29,7200,21.5C7320,14,7440,29,7560,28.7C7680,29,7800,14,7920,50.2C8040,86,8160,172,8280,222.2C8400,272,8520,287,8580,293.8L8640,301L8640,430L8580,430C8520,430,8400,430,8280,430C8160,430,8040,430,7920,430C7800,430,7680,430,7560,430C7440,430,7320,430,7200,430C7080,430,6960,430,6840,430C6720,430,6600,430,6480,430C6360,430,6240,430,6120,430C6000,430,5880,430,5760,430C5640,430,5520,430,5400,430C5280,430,5160,430,5040,430C4920,430,4800,430,4680,430C4560,430,4440,430,4320,430C4200,430,4080,430,3960,430C3840,430,3720,430,3600,430C3480,430,3360,430,3240,430C3120,430,3000,430,2880,430C2760,430,2640,430,2520,430C2400,430,2280,430,2160,430C2040,430,1920,430,1800,430C1680,430,1560,430,1440,430C1320,430,1200,430,1080,430C960,430,840,430,720,430C600,430,480,430,360,430C240,430,120,430,60,430L0,430Z"/><defs><linearGradient id="sw-gradient-2" x1="0" x2="0" y1="1" y2="0"><stop stop-color="rgba(243, 106, 62, 1)" offset="0%"/><stop stop-color="rgba(255, 179, 11, 1)" offset="100%"/></linearGradient></defs><path style="transform:translate(0, 100px); opacity:0.8" fill="url(#sw-gradient-2)" d="M0,258L60,222.2C120,186,240,115,360,71.7C480,29,600,14,720,50.2C840,86,960,172,1080,229.3C1200,287,1320,315,1440,272.3C1560,229,1680,115,1800,71.7C1920,29,2040,57,2160,78.8C2280,100,2400,115,2520,107.5C2640,100,2760,72,2880,114.7C3000,158,3120,272,3240,286.7C3360,301,3480,215,3600,200.7C3720,186,3840,244,3960,272.3C4080,301,4200,301,4320,315.3C4440,330,4560,358,4680,322.5C4800,287,4920,186,5040,136.2C5160,86,5280,86,5400,129C5520,172,5640,258,5760,279.5C5880,301,6000,258,6120,222.2C6240,186,6360,158,6480,164.8C6600,172,6720,215,6840,193.5C6960,172,7080,86,7200,64.5C7320,43,7440,86,7560,107.5C7680,129,7800,129,7920,164.8C8040,201,8160,272,8280,250.8C8400,229,8520,115,8580,57.3L8640,0L8640,430L8580,430C8520,430,8400,430,8280,430C8160,430,8040,430,7920,430C7800,430,7680,430,7560,430C7440,430,7320,430,7200,430C7080,430,6960,430,6840,430C6720,430,6600,430,6480,430C6360,430,6240,430,6120,430C6000,430,5880,430,5760,430C5640,430,5520,430,5400,430C5280,430,5160,430,5040,430C4920,430,4800,430,4680,430C4560,430,4440,430,4320,430C4200,430,4080,430,3960,430C3840,430,3720,430,3600,430C3480,430,3360,430,3240,430C3120,430,3000,430,2880,430C2760,430,2640,430,2520,430C2400,430,2280,430,2160,430C2040,430,1920,430,1800,430C1680,430,1560,430,1440,430C1320,430,1200,430,1080,430C960,430,840,430,720,430C600,430,480,430,360,430C240,430,120,430,60,430L0,430Z"/><defs><linearGradient id="sw-gradient-3" x1="0" x2="0" y1="1" y2="0"><stop stop-color="rgba(243, 106, 62, 1)" offset="0%"/><stop stop-color="rgba(255, 179, 11, 1)" offset="100%"/></linearGradient></defs><path style="transform:translate(0, 150px); opacity:0.7" fill="url(#sw-gradient-3)" d="M0,258L60,236.5C120,215,240,172,360,179.2C480,186,600,244,720,286.7C840,330,960,358,1080,358.3C1200,358,1320,330,1440,265.2C1560,201,1680,100,1800,93.2C1920,86,2040,172,2160,200.7C2280,229,2400,201,2520,207.8C2640,215,2760,258,2880,286.7C3000,315,3120,330,3240,344C3360,358,3480,373,3600,365.5C3720,358,3840,330,3960,301C4080,272,4200,244,4320,236.5C4440,229,4560,244,4680,272.3C4800,301,4920,344,5040,315.3C5160,287,5280,186,5400,186.3C5520,186,5640,287,5760,286.7C5880,287,6000,186,6120,157.7C6240,129,6360,172,6480,200.7C6600,229,6720,244,6840,272.3C6960,301,7080,344,7200,351.2C7320,358,7440,330,7560,279.5C7680,229,7800,158,7920,150.5C8040,143,8160,201,8280,222.2C8400,244,8520,229,8580,222.2L8640,215L8640,430L8580,430C8520,430,8400,430,8280,430C8160,430,8040,430,7920,430C7800,430,7680,430,7560,430C7440,430,7320,430,7200,430C7080,430,6960,430,6840,430C6720,430,6600,430,6480,430C6360,430,6240,430,6120,430C6000,430,5880,430,5760,430C5640,430,5520,430,5400,430C5280,430,5160,430,5040,430C4920,430,4800,430,4680,430C4560,430,4440,430,4320,430C4200,430,4080,430,3960,430C3840,430,3720,430,3600,430C3480,430,3360,430,3240,430C3120,430,3000,430,2880,430C2760,430,2640,430,2520,430C2400,430,2280,430,2160,430C2040,430,1920,430,1800,430C1680,430,1560,430,1440,430C1320,430,1200,430,1080,430C960,430,840,430,720,430C600,430,480,430,360,430C240,430,120,430,60,430L0,430Z"/></svg>