<svg id="visual" viewBox="0 0 900 600" width="900" height="600" xmlns="http://www.w3.org/2000/svg" xmlns:xlink="http://www.w3.org/1999/xlink" version="1.1"><path d="M0 479L25 467.2C50 455.3 100 431.7 150 418.8C200 406 250 404 300 419.5C350 435 400 468 450 455.8C500 443.7 550 386.3 600 379.7C650 373 700 417 750 428.8C800 440.7 850 420.3 875 410.2L900 400L900 601L875 601C850 601 800 601 750 601C700 601 650 601 600 601C550 601 500 601 450 601C400 601 350 601 300 601C250 601 200 601 150 601C100 601 50 601 25 601L0 601Z" fill="#6dc4c7"></path><path d="M0 428L25 442C50 456 100 484 150 484.3C200 484.7 250 457.3 300 458.7C350 460 400 490 450 501.7C500 513.3 550 506.7 600 491C650 475.3 700 450.7 750 453.2C800 455.7 850 485.3 875 500.2L900 515L900 601L875 601C850 601 800 601 750 601C700 601 650 601 600 601C550 601 500 601 450 601C400 601 350 601 300 601C250 601 200 601 150 601C100 601 50 601 25 601L0 601Z" fill="#45b5b9"></path><path d="M0 490L25 499.8C50 509.7 100 529.3 150 528C200 526.7 250 504.3 300 507.3C350 510.3 400 538.7 450 547.7C500 556.7 550 546.3 600 524.3C650 502.3 700 468.7 750 460.8C800 453 850 471 875 480L900 489L900 601L875 601C850 601 800 601 750 601C700 601 650 601 600 601C550 601 500 601 450 601C400 601 350 601 300 601C250 601 200 601 150 601C100 601 50 601 25 601L0 601Z" fill="#269da2"></path><path d="M0 579L25 576.5C50 574 100 569 150 560C200 551 250 538 300 537.3C350 536.7 400 548.3 450 549.8C500 551.3 550 542.7 600 547C650 551.3 700 568.7 750 563.3C800 558 850 530 875 516L900 502L900 601L875 601C850 601 800 601 750 601C700 601 650 601 600 601C550 601 500 601 450 601C400 601 350 601 300 601C250 601 200 601 150 601C100 601 50 601 25 601L0 601Z" fill="#1f7e83"></path></svg>